<svg width="72" height="72" viewBox="0 0 72 72" fill="none" xmlns="http://www.w3.org/2000/svg">
<path d="M8 8V26H64V8H8Z" fill="#00558B"/>
<path d="M18 30V36H24V30H18Z" fill="#00558B"/>
<path d="M18 40V46H24V40H18Z" fill="#00558B"/>
<path d="M18 50V56H24V50H18Z" fill="#00558B"/>
<path d="M28 30V36H34V30H28Z" fill="#00558B"/>
<path d="M28 40V46H34V40H28Z" fill="#00558B"/>
<path d="M28 50V56H34V50H28Z" fill="#00558B"/>
<path d="M38 30V36H44V30H38Z" fill="#00558B"/>
<path d="M38 40V46H44V40H38Z" fill="#00558B"/>
<path d="M38 50V56H44V50H38Z" fill="#00558B"/>
<path d="M48 30V36H54V30H48Z" fill="#00558B"/>
<path d="M48 40V46H54V40H48Z" fill="#00558B"/>
<path d="M48 50V56H54V50H48Z" fill="#00558B"/>
<path d="M21.36 13.2901L17.59 17.0701L21.36 20.8401L19.07 23.1401L13 17.0701L19.07 11.0001L21.36 13.2901Z" fill="white"/>
<path d="M50.9994 20.85L54.7694 17.07L50.9994 13.3L53.2894 11L59.3594 17.07L53.2894 23.14L50.9994 20.85Z" fill="white"/>
<path d="M59.9969 26V59.85H12.0469V26H8.04688V63.85H63.9969V26H59.9969Z" fill="#808080"/>
</svg>
