<svg width="72" height="72" viewBox="0 0 72 72" fill="none" xmlns="http://www.w3.org/2000/svg">
<g clip-path="url(#clip0_13301_104072)">
<path d="M8 8V64H64V8H8ZM58 58H14V14H58V58Z" fill="#808080"/>
<rect x="27" y="34" width="3" height="3" fill="#00558B"/>
<rect x="32" y="34" width="3" height="3" fill="#00558B"/>
<rect x="37" y="34" width="3" height="3" fill="#808080"/>
<rect x="42" y="34" width="3" height="3" fill="#00558B"/>
<path d="M50.7 35.9399L47 39.6399L49.25 41.9399L55.25 35.9399L49.25 29.9999L47 32.2499L50.7 35.9399Z" fill="#00558B"/>
<path d="M21.55 36L25.25 32.3L23 30L17 36L23 41.94L25.25 39.69L21.55 36Z" fill="#00558B"/>
</g>
<defs>
<clipPath id="clip0_13301_104072">
<rect width="72" height="72" fill="white"/>
</clipPath>
</defs>
</svg>
