<svg width="72" height="72" viewBox="0 0 72 72" fill="none" xmlns="http://www.w3.org/2000/svg">
<path d="M8 8V64H64V8H8ZM58 58H14V14H58V58Z" fill="#808080"/>
<path d="M33 25H20V28H33V25Z" fill="#00558B"/>
<path d="M51 45H39V48H51V45Z" fill="#00558B"/>
<path d="M49.6066 20L39 30.6066L41.1213 32.7279L51.7279 22.1213L49.6066 20Z" fill="#00558B"/>
<path d="M51.3548 44.2518L45 50.6066L47.1213 52.7279L53.4761 46.3731L51.3548 44.2518Z" fill="#00558B"/>
<path d="M29.4762 49.3548L23.1213 43L21 45.1213L27.3548 51.4762L29.4762 49.3548Z" fill="#00558B"/>
<path d="M25 20L25 33L28 33L28 20L25 20Z" fill="#00558B"/>
<path d="M39.0001 22.1213L49.6067 32.7279L51.728 30.6066L41.1214 20L39.0001 22.1213Z" fill="#00558B"/>
<path d="M45.0001 42.1213L51.3835 48.5048L53.5049 46.3835L47.1214 40L45.0001 42.1213Z" fill="#00558B"/>
<path d="M31.6066 43.0001L25.2231 49.3835L27.3445 51.5049L33.728 45.1214L31.6066 43.0001Z" fill="#00558B"/>
</svg>
