<svg width="72" height="72" viewBox="0 0 72 72" fill="none" xmlns="http://www.w3.org/2000/svg">
<path d="M55 51.5L49 48V55L55 51.5Z" fill="#00558B"/>
<path d="M58 8H14C12.4087 8 10.8826 8.63214 9.75736 9.75736C8.63214 10.8826 8 12.4087 8 14V27C8 28.5913 8.63214 30.1174 9.75736 31.2426C10.8826 32.3679 12.4087 33 14 33H58C59.5913 33 61.1174 32.3679 62.2426 31.2426C63.3679 30.1174 64 28.5913 64 27V14C64 12.4087 63.3679 10.8826 62.2426 9.75736C61.1174 8.63214 59.5913 8 58 8ZM58 27H14V14H58V27Z" fill="#808080"/>
<path d="M58.05 39H45C43.4087 39 41.8826 39.6321 40.7574 40.7574C39.6321 41.8826 39 43.4087 39 45V58C39 59.5913 39.6321 61.1174 40.7574 62.2426C41.8826 63.3679 43.4087 64 45 64H58.1C59.6913 64 61.2174 63.3679 62.3426 62.2426C63.4679 61.1174 64.1 59.5913 64.1 58V45C64.1 44.2078 63.9432 43.4235 63.6385 42.6923C63.3339 41.9611 62.8875 41.2974 62.325 40.7396C61.7625 40.1818 61.0952 39.7409 60.3615 39.4423C59.6277 39.1437 58.8421 38.9934 58.05 39ZM58.05 58H45V45H58L58.05 58Z" fill="#00558B"/>
<path d="M45 64C43.4087 64 41.8826 63.3679 40.7574 62.2426C39.6321 61.1174 39 59.5913 39 58H14.08V45H39C39 43.4087 39.6321 41.8826 40.7574 40.7574C41.8826 39.6321 43.4087 39 45 39H14C12.4087 39 10.8826 39.6321 9.75736 40.7574C8.63214 41.8826 8 43.4087 8 45V58C8 59.5913 8.63214 61.1174 9.75736 62.2426C10.8826 63.3679 12.4087 64 14 64H45Z" fill="#808080"/>
</svg>
