<svg width="72" height="72" viewBox="0 0 72 72" fill="none" xmlns="http://www.w3.org/2000/svg">
<g clip-path="url(#clip0_34_3886)">
<path d="M27.05 8.00021H14C12.4087 8.00021 10.8826 8.63235 9.75736 9.75757C8.63214 10.8828 8 12.4089 8 14.0002V27.0002C8 28.5915 8.63214 30.1176 9.75736 31.2428C10.8826 32.3681 12.4087 33.0002 14 33.0002H27.1C28.6913 33.0002 30.2174 32.3681 31.3426 31.2428C32.4679 30.1176 33.1 28.5915 33.1 27.0002V14.0002C33.1 13.2081 32.9432 12.4237 32.6385 11.6925C32.3339 10.9613 31.8875 10.2976 31.325 9.73979C30.7625 9.18198 30.0952 8.74107 29.3615 8.4425C28.6277 8.14393 27.8421 7.99361 27.05 8.00021ZM28.05 28.0002H13V13.0002H28L28.05 28.0002Z" fill="#808080"/>
<path d="M24 18H21V29H24V18Z" fill="#808080"/>
<path d="M58.05 8.00021H45C43.4087 8.00021 41.8826 8.63235 40.7574 9.75757C39.6321 10.8828 39 12.4089 39 14.0002V27.0002C39 28.5915 39.6321 30.1176 40.7574 31.2428C41.8826 32.3681 43.4087 33.0002 45 33.0002H58.1C59.6913 33.0002 61.2174 32.3681 62.3426 31.2428C63.4679 30.1176 64.1 28.5915 64.1 27.0002V14.0002C64.1 13.2081 63.9432 12.4237 63.6385 11.6925C63.3339 10.9613 62.8875 10.2976 62.325 9.73979C61.7625 9.18198 61.0952 8.74107 60.3615 8.4425C59.6277 8.14393 58.8421 7.99361 58.05 8.00021ZM59.05 28.0002H44V13.0002H59L59.05 28.0002Z" fill="#808080"/>
<path d="M55 18H52V29H55V18Z" fill="#808080"/>
<path d="M27.05 39.0002H14C12.4087 39.0002 10.8826 39.6323 9.75736 40.7576C8.63214 41.8828 8 43.4089 8 45.0002V58.0002C8 59.5915 8.63214 61.1176 9.75736 62.2428C10.8826 63.3681 12.4087 64.0002 14 64.0002H27.1C28.6913 64.0002 30.2174 63.3681 31.3426 62.2428C32.4679 61.1176 33.1 59.5915 33.1 58.0002V45.0002C33.1 44.2081 32.9432 43.4237 32.6385 42.6925C32.3339 41.9613 31.8875 41.2976 31.325 40.7398C30.7625 40.182 30.0952 39.7411 29.3615 39.4425C28.6277 39.1439 27.8421 38.9936 27.05 39.0002ZM28.05 59.0002H13V44.0002H28L28.05 59.0002Z" fill="#808080"/>
<path d="M58.05 39.0002H45C43.4087 39.0002 41.8826 39.6323 40.7574 40.7576C39.6321 41.8828 39 43.4089 39 45.0002V58.0002C39 59.5915 39.6321 61.1176 40.7574 62.2428C41.8826 63.3681 43.4087 64.0002 45 64.0002H58.1C59.6913 64.0002 61.2174 63.3681 62.3426 62.2428C63.4679 61.1176 64.1 59.5915 64.1 58.0002V45.0002C64.1 44.2081 63.9432 43.4237 63.6385 42.6925C63.3339 41.9613 62.8875 41.2976 62.325 40.7398C61.7625 40.182 61.0952 39.7411 60.3615 39.4425C59.6277 39.1439 58.8421 38.9936 58.05 39.0002ZM59.05 59.0002H44V44.0002H59L59.05 59.0002Z" fill="#00558B"/>
<path d="M24 49H21V60H24V49Z" fill="#808080"/>
<path d="M55 49H52V60H55V49Z" fill="#00558B"/>
</g>
<defs>
<clipPath id="clip0_34_3886">
<rect width="72" height="72" fill="white"/>
</clipPath>
</defs>
</svg>
