<svg width="72" height="72" viewBox="0 0 72 72" fill="none" xmlns="http://www.w3.org/2000/svg">
<path d="M8,8V34H34V8ZM29.67,29.67H12.33V12.33H29.67Z" fill="#808080"></path>
<path d="M8,38V64H34V38ZM29.67,59.67H12.33V42.33H29.67Z" fill="#808080"></path>
<path d="M51,8A13,13,0,1,0,64,21,13,13,0,0,0,51,8Zm0,21.67A8.67,8.67,0,1,1,59.67,21,8.67,8.67,0,0,1,51,29.67Z" fill="#808080"></path>
<circle cx="51" cy="21" r="5.42" fill="#00558B"></circle>
<polygon points="27.58 48.65 24.51 45.58 19.82 50.27 17.56 48.01 14.5 51.08 19.73 56.31 19.82 56.22 19.92 56.31 27.58 48.65" fill="#00558B"></polygon>
<path d="M51,38A13,13,0,1,0,64,51,13,13,0,0,0,51,38Zm0,21.67A8.67,8.67,0,1,1,59.67,51,8.67,8.67,0,0,1,51,59.67Z" fill="#808080"></path>
</svg>
