<svg width="72" height="72" viewBox="0 0 72 72" fill="none" xmlns="http://www.w3.org/2000/svg">
<path d="M51 60H8V64H51V60Z" fill="#808080"/>
<path d="M48 23.7L44.3 20L42 22.25L48 28.25L53.94 22.25L51.69 20L48 23.7Z" fill="#00558B"/>
<path d="M64 8H8V12H64V8Z" fill="#808080"/>
<path fill-rule="evenodd" clip-rule="evenodd" d="M54 31H18V51H54V31ZM51 35H23V39H51V35ZM23 43H39V47H23V43Z" fill="#00558B"/>
<path d="M39 21H18V26H39V21Z" fill="#00558B"/>
<path d="M8 8V64H64V8H8ZM58 58H14V14H58V58Z" fill="#808080"/>
</svg>
