<svg width="72" height="72" viewBox="0 0 72 72" fill="none" xmlns="http://www.w3.org/2000/svg">
<rect id="Rectangle" fill="#858585" fill-rule="nonzero" x="9.03636364" y="8" width="35.6363636" height="4"></rect>
<rect id="Rectangle" fill="#A7A3A3" fill-rule="nonzero" x="9.03636364" y="15" width="51.9272727" height="4"></rect>
<path d="M58.1218383,44 L14.8781617,44 C11.6317427,44 9,46.1490332 9,48.8 L9,59.2 C9,61.8509668 11.6317427,64 14.8781617,64 L58.1218383,64 C61.3682573,64 64,61.8509668 64,59.2 L64,48.8 C64,46.1490332 61.3682573,44 58.1218383,44 Z M15,49 L40,49 L40,60 L15,60 L15,49 Z M45,60 L45,49 L58,49 L58,60 L45,60 Z" id="Shape" fill="#858585" fill-rule="nonzero"></path>
<path d="M21.52,28 L24.32,35.5 L22.61,35.5 L22.06,33.82 L19.26,33.82 L18.65,35.5 L17,35.5 L19.83,28.01 L21.52,28 Z M21.61,32.59 L20.67,29.85 L20.67,29.85 L19.67,32.59 L21.61,32.59 Z" id="Shape" fill="#007099" fill-rule="nonzero"></path>
<path d="M26.3,28 L26.3,30.73 L26.3,30.73 C26.4769471,30.4520714 26.7353809,30.2355458 27.04,30.11 C27.3567765,29.9787594 27.6971641,29.9140858 28.04,29.92 C28.3184899,29.9234179 28.5936348,29.9811644 28.85,30.09 C29.1225345,30.2086489 29.3676475,30.3822706 29.57,30.6 C29.78674,30.8676825 29.9527951,31.1726817 30.06,31.5 C30.3265385,32.3359343 30.3265385,33.2340657 30.06,34.07 C29.9427574,34.3930512 29.7664224,34.6914642 29.54,34.95 C29.3378471,35.1704788 29.0928556,35.3474171 28.82,35.47 C28.5630201,35.5756537 28.2878514,35.6300081 28.01,35.63 C27.6453575,35.6355341 27.2827615,35.5745367 26.94,35.45 C26.635116,35.3273092 26.3835656,35.1005596 26.23,34.81 L26.23,34.81 L26.23,35.5 L24.81,35.5 L24.81,28 L26.3,28 Z M28.71,32.12 C28.6684666,31.9238766 28.5904459,31.7373054 28.48,31.57 C28.3817569,31.41171 28.24829,31.2782431 28.09,31.18 C27.732939,30.9932722 27.307061,30.9932722 26.95,31.18 C26.7909325,31.2806881 26.6546822,31.4135321 26.55,31.57 C26.4436243,31.7394454 26.3659154,31.9252711 26.32,32.12 C26.2709518,32.336508 26.247458,32.5580203 26.25,32.78 C26.2474995,32.9986747 26.2709976,33.2168717 26.32,33.43 C26.365911,33.627866 26.4435845,33.8169841 26.55,33.99 C26.6522907,34.1457802 26.7891823,34.2758272 26.95,34.37 C27.307061,34.5567278 27.732939,34.5567278 28.09,34.37 C28.2500547,34.2783673 28.3842417,34.147621 28.48,33.99 C28.590548,33.8191159 28.668527,33.6292542 28.71,33.43 C28.7624628,33.2172935 28.7893199,32.9990798 28.79,32.78 C28.7892646,32.5576267 28.762414,32.3361092 28.71,32.12 Z" id="Shape" fill="#007099" fill-rule="nonzero"></path>
<path d="M33.81,31.04 C33.598851,31.035165 33.3907051,31.0906705 33.21,31.2 C33.0505919,31.3094964 32.9174046,31.4529289 32.82,31.62 C32.7179065,31.7976112 32.6437076,31.9898539 32.6,32.19 C32.5607087,32.3909717 32.5406183,32.5952244 32.54,32.8 C32.5401321,33.0014909 32.5602303,33.2024729 32.6,33.4 C32.6456092,33.5917396 32.7162134,33.7766554 32.81,33.95 C32.9010161,34.1158415 33.0315388,34.2566687 33.19,34.36 C33.3686394,34.4645083 33.5731383,34.5164996 33.78,34.51 C34.0835566,34.5311472 34.381759,34.4220488 34.6,34.21 C34.811216,33.9945603 34.938835,33.7109627 34.96,33.41 L36.4,33.41 C36.3424945,34.0475253 36.0416771,34.6384166 35.56,35.06 C35.0555611,35.4515823 34.4278753,35.6501721 33.79,35.62 C33.4071233,35.627938 33.0264658,35.5599634 32.67,35.42 C32.0129464,35.1591738 31.4970343,34.6323623 31.25,33.97 C31.1155785,33.6154646 31.0477752,33.2391564 31.05,32.86 C31.044751,32.4619139 31.1090498,32.0659683 31.24,31.69 C31.3535662,31.3429208 31.5373829,31.0229436 31.78,30.75 C32.0207817,30.4842189 32.3180665,30.2757778 32.65,30.14 C33.0203363,29.9856957 33.41891,29.9107502 33.82,29.92 C34.1339132,29.9191678 34.4465797,29.9595118 34.75,30.04 C35.0363372,30.125024 35.3066483,30.2568007 35.55,30.43 C35.7825657,30.6012345 35.9767265,30.8192396 36.12,31.07 C36.27473,31.3490483 36.3604495,31.6610672 36.37,31.98 L34.91,31.98 C34.8950115,31.7070736 34.7689568,31.452178 34.5611569,31.2746036 C34.3533571,31.0970292 34.0819258,31.012255 33.81,31.04 Z" id="Path" fill="#007099" fill-rule="nonzero"></path>
<polygon id="Path" fill="#858585" fill-rule="nonzero" points="54 54.5 50 52 50 57"></polygon>
<path d="M58.1165983,22 L14.8834017,22 C11.6340887,22 9,24.0415815 9,26.56 L9,36.44 C9,38.9584185 11.6340887,41 14.8834017,41 L58.1165983,41 C61.3659113,41 64,38.9584185 64,36.44 L64,26.56 C64,24.0415815 61.3659113,22 58.1165983,22 Z M58,37 L15,37 L15,27 L58,27 L58,37 Z" id="Shape" fill="#007099" fill-rule="nonzero"></path>
</svg>