<svg width="72" height="72" viewBox="0 0 72 72" fill="none" xmlns="http://www.w3.org/2000/svg">
<path d="M8 8V64H64V8H8ZM58 58H14V14H58V58Z" fill="#808080"/>
<path d="M55 18.89L53.11 17L50 20.11L48.5 18.61L46.61 20.5L50 23.89L55 18.89Z" fill="#808080"/>
<path d="M55 25.89L53.11 24L50 27.11L48.5 25.61L46.61 27.5L50 30.89L55 25.89Z" fill="#808080"/>
<path d="M55 33.89L53.11 32L50 35.11L48.5 33.61L46.61 35.5L50 38.89L55 33.89Z" fill="#808080"/>
<path d="M55 41.89L53.11 40L50 43.11L48.5 41.61L46.61 43.5L50 46.89L55 41.89Z" fill="#808080"/>
<path d="M55 49.89L53.11 48L50 51.11L48.5 49.61L46.61 51.5L50 54.89L55 49.89Z" fill="#808080"/>
<path d="M44 26H18V30H44V26Z" fill="#00558B"/>
<path d="M44 18H18V22H44V18Z" fill="#00558B"/>
<path d="M44 50H18V54H44V50Z" fill="#00558B"/>
<path d="M44 34H18V38H44V34Z" fill="#00558B"/>
<path d="M44 42H18V46H44V42Z" fill="#00558B"/>
</svg>
