<svg width="72" height="72" viewBox="0 0 72 72" fill="none" xmlns="http://www.w3.org/2000/svg">
<rect x="30" y="26" width="24" height="4" fill="#808080"></rect>
<rect x="18" y="17" width="16" height="5" fill="#00558B"></rect>
<rect x="30" y="34" width="18" height="4" fill="#808080"></rect>
<rect x="18" y="42" width="4" height="4" fill="#808080"></rect>
<rect x="18" y="34" width="4" height="4" fill="#808080"></rect>
<rect x="18" y="26" width="4" height="4" fill="#808080"></rect>
<rect x="30" y="42" width="24" height="4" fill="#808080"></rect>
<polygon points="28 48 28 24 24 24 24 48 19.14 48 26 56 32.86 48 28 48" fill="#00558B"></polygon>
<polygon points="18.57 50 18 50 18 54 22 54 18.57 50" fill="#808080"></polygon>
<polygon points="33.43 50 30 54 48 54 48 50 33.43 50" fill="#808080"></polygon>
<path d="M8,8V64H64V8ZM58,58H14V14H58Z" fill="#808080"></path>
</svg>
