<svg width="72" height="72" viewBox="0 0 72 72" fill="none" xmlns="http://www.w3.org/2000/svg">
<g clip-path="url(#clip0_13195_106385)">
<g clip-path="url(#clip1_13195_106385)">
<rect x="45" y="13" width="19" height="4" fill="#808080"/>
<rect x="45" y="25" width="19" height="6" fill="#00558B"/>
<rect x="45" y="39" width="19" height="6" fill="#808080"/>
<rect x="45" y="53" width="19" height="6" fill="#808080"/>
<rect x="8" y="13" width="31" height="4" fill="#808080"/>
<rect x="8" y="25" width="31" height="6" fill="#00558B"/>
<rect x="8" y="39" width="31" height="6" fill="#808080"/>
<rect x="8" y="53" width="31" height="6" fill="#808080"/>
<rect x="8" y="20" width="56" height="2" fill="#00558B"/>
<rect x="8" y="34" width="56" height="2" fill="#00558B"/>
<rect x="8" y="48" width="56" height="2" fill="#808080"/>
<rect x="8" y="62" width="56" height="2" fill="#808080"/>
<rect x="8" y="8" width="56" height="2" fill="#808080"/>
</g>
</g>
<defs>
<clipPath id="clip0_13195_106385">
<rect width="72" height="72" fill="white"/>
</clipPath>
<clipPath id="clip1_13195_106385">
<rect width="100" height="100" fill="white" transform="translate(-12 -11)"/>
</clipPath>
</defs>
</svg>
