<svg width="72" height="72" viewBox="0 0 72 72" fill="none" xmlns="http://www.w3.org/2000/svg">
<g clip-path="url(#clip0_5793_38408)">
<path d="M21.52 17L24.32 24.5H22.61L22.06 22.82H19.26L18.65 24.5H17L19.83 17.01L21.52 17ZM21.61 21.59L20.67 18.85L19.67 21.59H21.61Z" fill="#00558B"/>
<path d="M26.3025 17V19.73C26.4794 19.4521 26.7379 19.2355 27.0425 19.11C27.3593 18.9788 27.6997 18.9141 28.0425 18.92C28.321 18.9234 28.5961 18.9812 28.8525 19.09C29.125 19.2086 29.3701 19.3823 29.5725 19.6C29.7892 19.8677 29.9553 20.1727 30.0625 20.5C30.329 21.3359 30.329 22.2341 30.0625 23.07C29.9453 23.3931 29.7689 23.6915 29.5425 23.95C29.3403 24.1705 29.0954 24.3474 28.8225 24.47C28.5655 24.5757 28.2904 24.63 28.0125 24.63C27.6479 24.6355 27.2853 24.5745 26.9425 24.45C26.6376 24.3273 26.3861 24.1006 26.2325 23.81V24.5H24.8125V17H26.3025ZM28.7125 21.12C28.671 20.9239 28.5929 20.7373 28.4825 20.57C28.3843 20.4117 28.2508 20.2782 28.0925 20.18C27.9166 20.088 27.721 20.04 27.5225 20.04C27.324 20.04 27.1284 20.088 26.9525 20.18C26.7934 20.2807 26.6572 20.4135 26.5525 20.57C26.4461 20.7394 26.3684 20.9253 26.3225 21.12C26.2735 21.3365 26.25 21.558 26.2525 21.78C26.25 21.9987 26.2735 22.2169 26.3225 22.43C26.3684 22.6279 26.4461 22.817 26.5525 22.99C26.6548 23.1458 26.7917 23.2758 26.9525 23.37C27.1284 23.462 27.324 23.51 27.5225 23.51C27.721 23.51 27.9166 23.462 28.0925 23.37C28.2526 23.2784 28.3867 23.1476 28.4825 22.99C28.593 22.8191 28.671 22.6293 28.7125 22.43C28.765 22.2173 28.7918 21.9991 28.7925 21.78C28.7918 21.5576 28.7649 21.3361 28.7125 21.12Z" fill="#00558B"/>
<path d="M33.8072 20.0402C33.596 20.0354 33.3879 20.0909 33.2072 20.2002C33.0478 20.3097 32.9146 20.4531 32.8172 20.6202C32.7151 20.7978 32.6409 20.9901 32.5972 21.1902C32.5579 21.3912 32.5378 21.5954 32.5372 21.8002C32.5373 22.0017 32.5574 22.2027 32.5972 22.4002C32.6428 22.5919 32.7134 22.7769 32.8072 22.9502C32.8982 23.116 33.0287 23.2569 33.1872 23.3602C33.3658 23.4647 33.5703 23.5167 33.7772 23.5102C33.9273 23.5207 34.0779 23.4993 34.2192 23.4476C34.3605 23.396 34.4893 23.315 34.5972 23.2102C34.8084 22.9948 34.936 22.7112 34.9572 22.4102H36.3972C36.3397 23.0477 36.0388 23.6386 35.5572 24.0602C35.0527 24.4518 34.425 24.6504 33.7872 24.6202C33.4043 24.6281 33.0236 24.5602 32.6672 24.4202C32.3423 24.2912 32.048 24.0955 31.8034 23.8458C31.5588 23.596 31.3693 23.2977 31.2472 22.9702C31.1128 22.6157 31.0449 22.2394 31.0472 21.8602C31.0419 21.4621 31.1062 21.0662 31.2372 20.6902C31.3507 20.3431 31.5346 20.0231 31.7772 19.7502C32.018 19.4844 32.3152 19.276 32.6472 19.1402C33.0175 18.9859 33.4161 18.9109 33.8172 18.9202C34.1311 18.9194 34.4438 18.9597 34.7472 19.0402C35.0335 19.1252 35.3038 19.257 35.5472 19.4302C35.7797 19.6014 35.9739 19.8194 36.1172 20.0702C36.2719 20.3492 36.3576 20.6613 36.3672 20.9802H34.9072C34.8998 20.8451 34.865 20.713 34.8051 20.5917C34.7451 20.4705 34.6612 20.3627 34.5583 20.2748C34.4555 20.1869 34.3359 20.1208 34.2068 20.0805C34.0777 20.0402 33.9417 20.0265 33.8072 20.0402Z" fill="#00558B"/>
<rect x="11" y="11" width="50" height="50" rx="3" stroke="#00558B" stroke-width="6"/>
<path d="M52 52C55.2289 48.7823 60 44 60 44V61H43C43 61 48.5756 55.4126 52 52Z" fill="#00558B"/>
</g>
<defs>
<clipPath id="clip0_5793_38408">
<rect width="72" height="72" fill="white"/>
</clipPath>
</defs>
</svg>
