<svg width="72" height="72" viewBox="0 0 72 72" fill="none" xmlns="http://www.w3.org/2000/svg">
<rect x="33" y="33" width="6" height="56" transform="translate(-25 97) rotate(-90)" fill="#808080"></rect>
<rect x="33" y="33" width="6" height="56" transform="translate(-25 97) rotate(-90)" fill="#808080"></rect>
<rect x="18" y="26" width="36" height="4" fill="#808080"></rect>
<rect x="18" y="18" width="6" height="4" fill="#00558B"></rect>
<rect x="27" y="18" width="9" height="4" fill="#00558B"></rect>
<rect x="46" y="18" width="8" height="4" fill="#00558B"></rect>
<rect x="39" y="18" width="4" height="4" fill="#00558B"></rect>
<rect x="18" y="50" width="30" height="4" fill="#808080"></rect>
<rect x="18" y="34" width="30" height="4" fill="#808080"></rect>
<rect x="18" y="42" width="36" height="4" fill="#808080"></rect>
<rect x="33" y="33" width="6" height="56" transform="translate(-25 97) rotate(-90)" fill="#808080"></rect>
<path d="M8,8V64H64V8ZM58,58H14V14H58Z" fill="#808080"></path>
</svg>
