<svg width="72" height="72" viewBox="0 0 72 72" fill="none" xmlns="http://www.w3.org/2000/svg">
<g clip-path="url(#clip0_89_4215)">
<path d="M60 8H42C40.9391 8 39.9217 8.42143 39.1716 9.17157C38.4214 9.92172 38 10.9391 38 12V30C38 31.0609 38.4214 32.0783 39.1716 32.8284C39.9217 33.5786 40.9391 34 42 34H60C61.0609 34 62.0783 33.5786 62.8284 32.8284C63.5786 32.0783 64 31.0609 64 30V12C64 10.9391 63.5786 9.92172 62.8284 9.17157C62.0783 8.42143 61.0609 8 60 8ZM60 30H42V12H60V30Z" fill="#808080"/>
<path d="M58 14H44V16H58V14Z" fill="#808080"/>
<path d="M58 26H54V28H58V26Z" fill="#808080"/>
<path d="M54 18H44V20H54V18Z" fill="#808080"/>
<path d="M60 38H42C40.9391 38 39.9217 38.4214 39.1716 39.1716C38.4214 39.9217 38 40.9391 38 42V60C38 61.0609 38.4214 62.0783 39.1716 62.8284C39.9217 63.5786 40.9391 64 42 64H60C61.0609 64 62.0783 63.5786 62.8284 62.8284C63.5786 62.0783 64 61.0609 64 60V42C64 40.9391 63.5786 39.9217 62.8284 39.1716C62.0783 38.4214 61.0609 38 60 38ZM60 60H42V42H60V60Z" fill="#808080"/>
<path d="M58 44H44V46H58V44Z" fill="#808080"/>
<path d="M58 56H54V58H58V56Z" fill="#808080"/>
<path d="M54 48H44V50H54V48Z" fill="#808080"/>
<path d="M30 38H12C10.9391 38 9.92172 38.4214 9.17157 39.1716C8.42143 39.9217 8 40.9391 8 42V60C8 61.0609 8.42143 62.0783 9.17157 62.8284C9.92172 63.5786 10.9391 64 12 64H30C31.0609 64 32.0783 63.5786 32.8284 62.8284C33.5786 62.0783 34 61.0609 34 60V42C34 40.9391 33.5786 39.9217 32.8284 39.1716C32.0783 38.4214 31.0609 38 30 38ZM30 60H12V42H30V60Z" fill="#808080"/>
<path d="M28 44H14V46H28V44Z" fill="#808080"/>
<path d="M28 56H24V58H28V56Z" fill="#808080"/>
<path d="M24 48H14V50H24V48Z" fill="#808080"/>
<path d="M30 8H12C10.9391 8 9.92172 8.42143 9.17157 9.17157C8.42143 9.92172 8 10.9391 8 12V30C8 31.0609 8.42143 32.0783 9.17157 32.8284C9.92172 33.5786 10.9391 34 12 34H30C31.0609 34 32.0783 33.5786 32.8284 32.8284C33.5786 32.0783 34 31.0609 34 30V12C34 10.9391 33.5786 9.92172 32.8284 9.17157C32.0783 8.42143 31.0609 8 30 8ZM14 18H24V20H14V18ZM28 28H24V26H28V28ZM28 16H14V14H28V16Z" fill="#00558B"/>
</g>
<defs>
<clipPath id="clip0_89_4215">
<rect width="72" height="72" fill="white"/>
</clipPath>
</defs>
</svg>
