<svg width="72" height="72" viewBox="0 0 72 72" fill="none" xmlns="http://www.w3.org/2000/svg">
<path d="M51 60H8V64H51V60Z" fill="#808080"/>
<path d="M47.5327 22.0364L43.5042 18L41 20.4545L47.5327 27L54 20.4545L51.5502 18L47.5327 22.0364Z" fill="#00558B"/>
<path d="M64 8H8V12H64V8Z" fill="#808080"/>
<path fill-rule="evenodd" clip-rule="evenodd" d="M54 32H18V54H54V32ZM49 37H23V41H49V37ZM23 45H39V49H23V45Z" fill="#808080"/>
<path d="M38 18H18V24H38V18Z" fill="#00558B"/>
<path d="M38 26H18V28H38V26Z" fill="#00558B"/>
<path d="M8 8V64H64V8H8ZM58 58H14V14H58V58Z" fill="#808080"/>
</svg>
