<svg xmlns="http://www.w3.org/2000/svg" width="72" height="72" fill="none">
  <g clip-path="url(#a)">
    <g clip-path="url(#b)">
      <circle cx="36" cy="21" r="4" fill="#00558B"/>
    </g>
    <path fill="#00558B" d="M30 27h12v15H30z"/>
    <path fill="#00558B" d="M30 39h4v16h-4zM54 26v4H18v-4zM38 39h4v16h-4z"/>
    <path stroke="#808080" stroke-width="6" d="M11 48V24c0-7.18 5.82-13 13-13h24c7.18 0 13 5.82 13 13v24c0 7.18-5.82 13-13 13H24c-7.18 0-13-5.82-13-13Z"/>
  </g>
  <defs>
    <clipPath id="a">
      <path fill="#fff" d="M0 0h72v72H0z"/>
    </clipPath>
    <clipPath id="b">
      <path fill="#fff" d="M-12-11H88V89H-12z"/>
    </clipPath>
  </defs>
</svg>