<svg width="72" height="72" viewBox="0 0 72 72" fill="none" xmlns="http://www.w3.org/2000/svg">
<g clip-path="url(#clip0_13262_103161)">
<path d="M8 8V64H64V8H8ZM58 58H14V14H58V58Z" fill="#808080"/>
<g clip-path="url(#clip1_13262_103161)">
<g clip-path="url(#clip2_13262_103161)">
<path d="M40.2383 28.9409H44.474C46.3463 28.9409 48.1419 29.6847 49.4658 31.0086C50.7897 32.3325 51.5335 34.1281 51.5335 36.0004C51.5335 37.8727 50.7897 39.6683 49.4658 40.9922C48.1419 42.3162 46.3463 43.0599 44.474 43.0599H40.2383" stroke="#00558B" stroke-width="4.2357" stroke-linecap="square" stroke-linejoin="round"/>
<path d="M31.7601 43.0599H27.5243C25.6521 43.0599 23.8564 42.3162 22.5325 40.9922C21.2086 39.6683 20.4648 37.8727 20.4648 36.0004C20.4648 34.1281 21.2086 32.3325 22.5325 31.0086C23.8564 29.6847 25.6521 28.9409 27.5243 28.9409H31.7601" stroke="#00558B" stroke-width="4.2357" stroke-linecap="square" stroke-linejoin="round"/>
<path d="M30.3477 36H41.6429" stroke="#00558B" stroke-width="4.2357" stroke-linecap="square" stroke-linejoin="round"/>
</g>
</g>
</g>
<defs>
<clipPath id="clip0_13262_103161">
<rect width="72" height="72" fill="white"/>
</clipPath>
<clipPath id="clip1_13262_103161">
<rect width="100" height="100" fill="white" transform="translate(-12 -11)"/>
</clipPath>
<clipPath id="clip2_13262_103161">
<rect width="36.0035" height="19.0607" fill="white" transform="translate(17.9961 26.4697)"/>
</clipPath>
</defs>
</svg>
