<svg width="80" height="80" xmlns="http://www.w3.org/2000/svg">
  <style>
    path { fill: #000; }
    @media (prefers-color-scheme: dark) {
      path { fill: #fff; }
    }
  </style>
  <path d="m26.943 57.908-.19.189.19-.189ZM29.22 42.923c0-.19-.19-.378-.379-.378-.19 0-.38.189-.38.378s.19.377.38.377.38-.188.38-.377ZM33.966 40.53l5.442 3.211a.72.72 0 0 0 .506.19c.19 0 .317-.064.443-.19l5.505-3.274c.633-.315 1.14-1.26 1.14-2.33V26.742H32.89v11.397c0 1.133.443 2.077 1.075 2.392Zm3.607-5.793h-1.202v-2.77h1.202v2.77Zm-.822-4.03h.253l.126-.251.127.252h.253l-.127.189.19.189-.19.063v.251l-.19-.126-.19.126v-.252l-.316-.063.19-.188-.126-.19Zm5.568-3.525h4.303v7.555h-4.303v-7.555Zm0 7.933h4.303v3.211c-.064.819-.38 1.511-.886 1.89l-3.354 2.014c-.063-.063-.063-7.115-.063-7.115Zm-4.366-7.933h3.986v7.555h-3.986v-7.555Zm0 7.933h3.986v7.304l-1.582.945c-.126.062-.253.125-.443.125s-.316-.063-.443-.125l-1.518-.945v-7.304Zm-1.582-7.933h1.202v2.896h-1.202v-2.896Zm-1.202.692h.253l.126-.252.127.252h.253l-.127.19.19.188-.19.063v.252l-.19-.126-.252.126v-.252l-.254-.063.19-.189-.126-.189Zm-.064 2.582c.443 0 .317.378.38.378s0-.378.253-.378c.38 0 .886 1.07.443 1.07-.19 0-.063-.126-.063-.189s-.127-.126-.127-.126c-.126 0-.19.19-.316.252-.063 0-.127 0-.127-.063s.19-.126.253-.189c-.885 0-.949.441-1.075.441-.253 0 .19-.44.316-.567-.19-.063-.316-.251-.506-.377.127-.126.127-.063.253 0 .063-.126.127-.252.316-.252Zm0 3.463.19-.189-.126-.189h.253l.126-.252.127.252h.253l-.127.189.19.189-.19.063v.252l-.19-.126-.19.126v-.252l-.316-.063Zm-1.835-6.737h1.456v2.896H33.27v-2.896Zm.19 3.904.19-.19-.127-.188h.254l.126-.252.127.252h.253l-.127.189.19.189-.19.063v.251l-.19-.126-.19.126v-.252l-.316-.063Zm-.19.881h1.456v2.77H33.27v-2.77Zm0 3.148h4.303v7.052l-3.354-2.015c-.569-.377-.822-1.07-.885-1.889-.064 0-.064-3.148-.064-3.148Z"/>
  <path d="M34.473 38.893c.316 0 .253-.189.253-.315 0 .126.126-.063.126.19 0 .251-.253.125-.253.377 0 .315.443 0 .443.315 0 .44-.063.44-.063.566 0 .126.506-.126.443-.189.126.063.126.378.316.378.127 0 .19-.315.253-.378-.063 0 .443.315.443.19 0-.441-.19-.252-.19-.504s.57-.19.507-.378c-.064-.126-.127-.063-.19-.252 0 .063-.443-.693.126-.315.57.378.633-.881.633-.944 0-.063-.253.063-.38.126.064-.126.317-.441.443-.567 0-.189-.253 0-.506.126.823-1.133.316-.693-.126-.567.696-.755.506-.755 0-.504.443-.314.506-.692.443-.818-.38.504-.76.44-.76.944 0 .315-.126.819-.253 1.008-.19.252-.063-.819-.57-.819-.19 0-.569 0-.695.19.126 0 .253.251.253.377s.126.44-.064.44-.38-.377-.38-.566v-.44c0-.441-.759-1.071-1.075-1.071 0 .315.443.378.443.819-.19 0-.443-.315-.443-.126 0 .188.253.251.253.44 0 .19-.316-.063-.316.126 0 .19.19.126.19.315-.127-.063-.254 0-.254.063s.064.126.127.189c-.063.063-.063.126-.063.378-.064.818.443 1.196.886 1.196ZM52.443 40.656a.432.432 0 0 0 .443-.44c0-.253-.19-.441-.443-.441a.431.431 0 0 0-.443.44c-.063.252.19.441.443.441ZM50.102 41.412c0 .251.19.44.443.44a.432.432 0 0 0 .443-.44c0-.252-.19-.441-.443-.441a.431.431 0 0 0-.443.44ZM28.208 43.552a.431.431 0 0 0-.443.441c0 .189.19.44.443.44a.431.431 0 0 0 .443-.44c0-.252-.19-.44-.443-.44ZM29.664 44.497a.432.432 0 0 0 .443-.44c0-.253-.19-.379-.443-.379a.431.431 0 0 0-.443.441c-.064.189.19.378.443.378ZM70.224 28.126c.506-.944.38-2.267-.317-3.085-.19-.189-.063-.567-.38-.63-.442 1.07-.063 2.204.444 3.148.063.19 0 .567.253.567ZM10.617 28.063c.127 0 .127.19.19.126a5.067 5.067 0 0 1 0-1.952c-.126-.503-.316-.944-.76-1.196-.062-.063-.189 0-.252.063.316.881-.127 2.267.822 2.96ZM71.68 26.93c.189-.126.442-.378.316-.693-.127-.189-.38-.252-.633-.252-.253.126-.38.378-.317.63.19.252.443.378.633.315ZM9.036 27.874c.19-.126.253-.314.316-.566-.063-.19-.253-.252-.443-.315-.19 0-.38.063-.443.189-.063.189-.063.378.127.503.063.19.253.19.443.19ZM72.312 28.378c.253.126.506 0 .696-.189a.4.4 0 0 0 0-.378c-.127-.126-.316-.252-.506-.252a.763.763 0 0 0-.443.441c0 .126.063.315.253.378ZM71.046 28.504c.253.063.38-.126.507-.252 0-.126.19-.378 0-.504-.127-.063-.254-.189-.443-.126-.253.063-.38.315-.38.567.063.252.19.252.316.315ZM69.465 28.819c.316-.063.316-.378.316-.693-.127-.126-.317-.252-.506-.252-.253.126-.38.315-.38.567.063.252.253.504.57.378ZM11.693 28.819c.127-.126.38-.252.316-.504-.126-.252-.442-.44-.696-.189-.063.126-.253.315-.126.504.127.063.316.252.506.189ZM10.238 28.819c.19-.063.253-.252.253-.504-.127-.189-.253-.44-.57-.315-.19.126-.316.315-.19.567.127.189.317.315.507.252ZM64.023 31.652c.38-.315.19-.944.253-1.385a5.2 5.2 0 0 0-.506-1.763c-.064-.126-.064-.378-.254-.315-.126.819-.569 1.826-.126 2.708.253.189.253.63.633.755ZM8.782 28.441a.66.66 0 0 0-.316.567c.127.189.316.44.633.378.19-.19.38-.315.316-.63-.126-.252-.38-.315-.633-.315ZM67.82 31.841a3.452 3.452 0 0 0-.127-2.393c-.253-.125-.38-.503-.38-.755-.063-.126-.19-.315-.316-.189-.19.44-.317.881-.317 1.385.19.693.696 1.322 1.013 2.015l.126-.063ZM70.16 28.756c-.19.126-.38.378-.253.567.064.251.317.377.57.314.253-.063.38-.378.38-.566-.19-.252-.443-.504-.697-.315ZM10.175 30.267c.19-.063.38-.252.38-.504-.064-.252-.254-.378-.507-.44-.127.063-.316.063-.38.188-.126.19-.063.378 0 .567.19.063.317.315.507.189ZM10.807 29.89c.127.188.253.377.57.314.126-.126.38-.252.253-.504-.127-.189-.253-.44-.57-.377-.126.125-.316.314-.253.566ZM70.92 30.582c.063-.315.57-.63.57-.945-.76.19-1.456.63-2.025 1.26-.254.44-.697.881-.697 1.385.254 0 .443-.19.57-.315.696-.252 1.329-.756 1.582-1.385ZM10.934 32.03c.126 0 .19-.126.19-.252-.443-.378-.633-.755-1.013-1.133-.316-.441-.76-.504-1.202-.819-.19 0-.506-.189-.57.063.57.819 1.393 2.078 2.595 2.141ZM69.465 33.856c.253.189.569-.126.822-.189.95-.504 1.455-1.637 1.519-2.645h-.19c-.823.882-1.645 1.764-2.151 2.834ZM66.68 32.408c.317-.126.506-.378.443-.693-.126-.126-.19-.252-.38-.315-.126 0-.252 0-.316.063-.253.063-.38.315-.316.567.126.189.316.378.57.378ZM10.048 33.1c-.443-.377-.886-.818-1.329-1.133-.506-.126-.949-.378-1.519-.315-.19.063-.506 0-.506.252.886.252 1.456.945 2.278 1.26.38-.064.76.125 1.076-.064ZM15.426 32.911c.19-.126.38-.251.38-.566-.063-.252-.316-.252-.506-.315-.19.126-.443.315-.317.567.127.252.254.252.443.314ZM13.718 33.037c.127.19.443.063.57-.063.063-.188.063-.44-.127-.566-.19-.19-.506-.063-.633.126-.126.126.063.315.19.503ZM66.807 32.785a.57.57 0 0 0-.38.378c0 .315.317.378.57.441.19-.126.443-.315.316-.567-.063-.126-.253-.314-.506-.252ZM67.883 33.352c.063.252.316.378.57.315.062-.126.126-.126.252-.189.19-.126 0-.315-.063-.44-.127-.127-.253-.252-.443-.19-.19.126-.38.252-.316.504ZM7.137 33.29c.063.125.127.251.19.314.316.126.57 0 .633-.315-.063-.252-.317-.378-.57-.44-.126.125-.19.251-.253.44ZM15.363 33.856c.127.189.317.378.57.378.19-.126.38-.252.443-.441-.127-.252-.38-.504-.633-.378-.253 0-.38.252-.38.44ZM14.098 33.667c-.064.252.126.378.253.504.253.126.443-.063.632-.19.064-.125 0-.314-.063-.377a.575.575 0 0 0-.443-.189c-.19 0-.316.19-.38.252ZM71.932 33.478c-.19.063-.316.126-.443.315 0 .126-.063.315.127.378a.61.61 0 0 0 .57.126c.126-.063.316-.252.316-.441-.19-.189-.317-.315-.57-.378ZM73.514 34.486c.253 0 .38-.19.443-.441-.063-.252-.38-.378-.633-.252-.126.063-.253.189-.253.378.064.252.317.315.443.315ZM10.364 34.108c-.126.126-.38.063-.443.252-.126.188 0 .377.127.503s.316.19.443.126c.253-.126.316-.315.316-.566-.063-.19-.19-.252-.443-.315ZM11.82 35.052c.063-.126.253-.189.19-.44-.127-.315-.633-.504-.823-.127-.19.19 0 .441.19.567.19.126.316.063.443 0ZM70.414 34.297c-.19.126-.317.252-.254.503.064.19.254.378.507.315.126-.126.38-.315.316-.567-.126-.251-.38-.251-.57-.251ZM72.059 34.926c-.063.19-.063.378.126.504.127.126.38.126.57.126.253-.126.253-.378.253-.63-.127-.063-.19-.189-.38-.315-.253-.063-.443.126-.57.315ZM9.162 35.241c0 .126-.126.378.063.504.127.063.317.126.507.063.063-.126.316-.126.19-.378-.127-.315-.57-.567-.76-.189ZM68.452 35.493c.316.189.696.315 1.013.567.506.503 1.392.377 2.024.126 0-.063.064-.19 0-.252-.759 0-1.329-.693-2.088-.819-.38.063-.822.063-.949.378ZM10.364 35.556c-.126.189-.063.504.19.63.127.063.316.126.443-.063.063-.126.19-.19.127-.441-.19-.252-.507-.44-.76-.126ZM13.022 36.374c.19-.126.316-.314.253-.566-.19-.252-.633-.504-.823-.126-.19.189 0 .378.127.566.127.064.253.19.443.127ZM40.674 40.908c.38-.189.759-.44.949-.819 0-.377.126-.881-.127-1.259-.253-.378-.38-.881-.506-1.385-.127-.693.696-.126.76-.567-.254-.252-.57-.755-1.013-.378-.253.19-.38.504-.253.819.126.63.38 1.196.443 1.826-.127-.063-.253-.189-.38-.315-.506-.63-1.392-.44-1.961-1.007-.696.063.443.755-.38.881 0 .189.19.252.19.44-.063.064-.19.064-.253.127 0 .44.253.818.38 1.196.442.756 1.455.378 2.15.44ZM15.173 37.256c.127-.126.317-.252.253-.504a.549.549 0 0 0-.443-.252c-.126.126-.316.252-.253.504.064.063.19.315.443.252ZM30.233 37.067c-.253.944-.76 2.267-.126 3.148.253 0 .19-.315.19-.503.506-.819.569-1.826.316-2.77-.064-.253-.317-.127-.38.125ZM51.81 39.712c.317-.693.317-1.638-.063-2.33-.127-.189-.063-.63-.443-.567 0 .504-.19.882-.316 1.323.063.63.316 1.196.57 1.762l.252-.188ZM14.287 38.704c.76.126 1.582 0 2.215-.44.253-.19.696-.253.823-.567-.064-.126-.19-.063-.19-.19-1.202-.251-2.152.316-2.848 1.197ZM8.909 41.034c-.57-.882-.76-1.763-1.709-2.393-.126 0-.253 0-.253.126 0 1.07.57 2.14 1.519 2.519.253-.063.443.252.696.126.063-.252-.19-.315-.253-.378ZM50.545 39.9c.19-.063.253-.314.19-.566-.127-.19-.443-.315-.696-.126-.064.126-.19.189-.127.378.19.252.38.44.633.314ZM70.35 42.482c1.392-.378 2.215-1.637 3.038-2.77-.19-.126-.443 0-.696.125-1.33.315-1.772 1.7-2.595 2.582.064.126.127.063.253.063ZM5.745 41.286c.19 0 .127-.252.253-.378-.063-.252-.253-.315-.443-.44-.19.062-.443.314-.316.566.126.189.316.315.506.252ZM9.985 40.845c.759.755 1.771 1.07 2.847.693.127-.063.38-.063.316-.252-.822-.63-2.024-.441-3.037-.693-.126 0-.126.126-.126.252ZM6.441 41.223c.127.126.19.252.317.315.253.063.442 0 .632-.19 0-.125 0-.251-.063-.377a.576.576 0 0 0-.443-.19c-.19.064-.38.19-.443.442ZM29.853 40.845c-.19.063-.253.315-.19.504.127.126.317.252.507.189.126-.126.38-.252.316-.504-.063-.19-.443-.19-.633-.19ZM73.388 41.223c-.064.189.063.252.126.377.127.063.317.126.443.063.19-.125.38-.251.317-.503-.127-.126-.254-.126-.38-.252-.19 0-.443.063-.506.315ZM75.35 41.79c.126.062.379 0 .442-.127.127-.188.253-.377.127-.566-.19 0-.317-.252-.57-.126-.126.063-.38.189-.38.44.064.127.254.252.38.378ZM4.416 42.293c.127.063.253-.063.38-.126.063-.126.19-.252.19-.44-.063-.19-.317-.315-.506-.378-.254.063-.38.252-.443.503.063.252.19.378.38.441ZM56.113 41.852c-.063.252.127.378.253.504.253.126.443-.063.57-.252v-.315c-.19-.315-.633-.252-.823.063ZM8.34 41.663c-.19.126-.19.378-.19.567.126.126.19.315.443.252s.316-.189.316-.378a.473.473 0 0 0-.57-.44ZM5.682 42.419c.126.252.38.44.633.378.126-.126.316-.315.253-.567-.127-.126-.253-.378-.443-.378a.605.605 0 0 0-.443.567ZM58.265 42.734a.465.465 0 0 0 .253-.567c-.127-.189-.253-.252-.507-.252-.316.063-.316.315-.443.504.19.189.38.44.697.315ZM7.58 42.608c.063-.126.19-.189.127-.378-.064-.189-.19-.378-.443-.378-.19.126-.317.19-.317.504 0 .189.19.252.317.378.126.063.19-.126.316-.126ZM71.996 42.23c-.064.126-.127.378 0 .44.126.064.253.253.443.19.19-.126.38-.19.442-.378.064-.504-.632-.693-.885-.252ZM73.894 42.419c-.19.315.063.504.316.567.253 0 .506-.126.57-.441-.064-.252-.317-.504-.57-.378-.126.063-.19.126-.316.252ZM62.567 42.419a.692.692 0 0 0-.38.63.685.685 0 0 0 .444.188c.19-.125.506-.251.38-.566-.064-.126-.19-.252-.444-.252ZM55.544 43.049c-.064.252.063.377.253.503s.443-.126.57-.188c0-.063.063-.252-.064-.315-.127-.315-.633-.252-.76 0ZM57.252 42.923c-.126 0-.253.126-.316.189-.063.125 0 .252 0 .377.19.063.38.252.57.063.19-.126.19-.188.19-.377-.064-.19-.317-.19-.444-.252ZM15.743 43.678c0-.126.19-.314.063-.503-.126-.126-.253-.19-.506-.252-.19 0-.19.189-.317.189-.063.188-.063.503.19.63.19.188.443.062.57-.064ZM65.352 43.741c.19-.063.442-.126.38-.377-.19-.19-.38-.441-.76-.315-.063.126-.19.188-.19.377.127.19.253.378.57.315ZM63.833 43.049c-.19.063-.253.188-.38.315 0 .125 0 .314.127.377a.61.61 0 0 0 .57.126c.126-.126.379-.252.252-.503-.126-.252-.316-.315-.57-.315ZM75.539 43.615l-.063-.063c-1.076-.063-2.152-.881-3.227-.188-.19.125-.57 0-.633.314 1.012.378 2.341.819 3.353.19.127-.064.57.062.57-.253ZM4.733 44.056c1.075.378 2.278 0 3.164-.567l.126-.188-.126-.064c-1.203-.188-2.405 0-3.29.693l.126.126ZM68.262 43.49c-.126-.253-.38-.253-.57-.253-.19.063-.379.252-.316.504.064.252.38.378.633.252.127-.126.253-.315.253-.504ZM12.136 44.056c.253-.126.19-.315.316-.504-.126-.188-.38-.44-.632-.315-.127.127-.317.19-.253.504 0 .19.316.441.57.315ZM10.048 44.182c.127.063.38.063.506-.063.063-.126.19-.189.127-.378-.064-.252-.253-.377-.506-.377-.19.062-.254.125-.38.251-.063.252.063.441.253.567ZM69.97 44.308c-.063-.189-.252-.378-.442-.378-.127.063-.253.063-.317.126a.488.488 0 0 0-.126.504c.126.126.253.252.443.252a.843.843 0 0 0 .443-.504ZM8.15 45.504c.19-.377.443-.63.57-1.07 0-.126.189-.189.126-.44l-.064-.064c-1.012.44-1.771 1.133-2.467 2.078l.126.189c.57-.126 1.266-.126 1.709-.693ZM68.389 45c.19-.125.443-.188.38-.503-.064-.19-.317-.378-.57-.315-.127.126-.38.189-.316.504.063.189.253.315.506.315ZM11.06 44.308c-.253.063-.316.378-.253.567.127.188.317.252.57.252.126-.127.316-.19.38-.504-.064 0-.127-.063-.064-.126-.063-.19-.38-.19-.633-.19ZM74.084 45.756c.19-.126.443-.252.316-.567-.127-.188-.38-.314-.57-.251-.253.063-.316.377-.569.377-.38-.44-1.012-1.007-1.708-.944-.254.189.19.378.316.567.316.755 1.076 1.259 1.772 1.51.063.064.253.064.316 0 0-.188-.19-.377-.316-.503-.064-.315.316-.063.443-.189ZM75.602 45c.064-.125.127-.377 0-.503-.19-.126-.316-.19-.57-.19-.189.064-.252.19-.379.316-.063.189.063.315.19.44.253.063.633.19.76-.063ZM64.529 44.497c0 .189.19.315.253.378.316 1.007 1.392 1.51 2.278 1.952.063 0 .19 0 .253-.063a4.068 4.068 0 0 0-.57-1.008c-.126-.252-.316-.378-.442-.63-.507-.251-1.14-.692-1.772-.63ZM9.478 45.252c.127.126.317.252.57.19.127-.127.316-.253.19-.504-.127-.126-.253-.315-.443-.315-.127.126-.443.315-.317.63ZM68.895 45.315c-.127.126 0 .315 0 .441.19.189.38.126.57.063.063-.126.253-.189.253-.378-.127-.189-.507-.44-.823-.126ZM75.539 46.449c.19-.126.443-.315.38-.63-.127-.126-.19-.189-.317-.252-.253-.126-.443 0-.633.19 0 .188-.126.314 0 .503.127.126.317.252.57.189ZM58.834 49.22a3.549 3.549 0 0 0-3.354.692v.126c.886 0 1.835 0 2.595-.378.19-.189.759-.126.759-.44ZM22.45 50.73c.19-.063.38-.189.38-.44-.063-.19-.253-.378-.443-.378-.19.126-.443.252-.317.566.064.126.254.252.38.252ZM57.505 50.982c.19.126.317.189.57.189.253-.126.316-.378.38-.567a.553.553 0 0 0-1.013 0c0 .126-.063.252.063.378ZM63.327 50.541c-1.266-.126-2.785-.126-3.544.882l.127.126h1.329c.822 0 1.518-.504 2.15-.882l-.062-.126ZM15.426 50.982c-.19.126-.316.378-.19.567.127.189.254.252.507.189.19-.063.316-.252.316-.504-.063-.126-.316-.44-.633-.252ZM16.882 51.234c-.064.126-.19.063-.317.189-.063.126 0 .315.127.44.127.127.316.064.443 0 .063-.125.19-.188.126-.314 0-.19-.19-.252-.38-.315ZM6.947 53.816c.253.125.633.503.886.188-.57-.755-.76-1.51-1.582-2.014-.19-.063-.38-.19-.506-.252-.19.063-.38-.252-.506 0 .886.63.886 1.574 1.708 2.078Z"/>
  <path d="M79.778 44.434c-.38-.693-1.075-1.008-1.835-1.008-.632.063-1.138.504-1.392 1.008-.126.567.064 1.07.443 1.385.19.063.38.063.507-.126.126-.315-.254-.315-.254-.566-.126-.378 0-.63.254-.882.253-.252.696-.126.949-.126.316.189.57.378.76.693.126.44.126.881 0 1.322-.254.63-.887 1.133-1.52 1.26-2.024.314-24.55.188-24.55.188-2.658.252-5.632-.504-7.91.882-1.013.503-1.582 1.637-1.835 2.644-.696.567-1.393 1.26-1.899 1.952l-.063-.063c.127-.567.38-1.133.506-1.7.38-.504.38-1.133.633-1.7.95-1.511 1.835-3.022 3.29-4.093.633-.818 1.709-.692 2.658-.692 1.012.503 2.215.63 3.417.503.063-.063.063-.126.063-.188-.38-.315-.886-.441-1.329-.756-1.012-.504-1.898.126-2.974.063-.063-.063-.126-.063-.063-.126.95-.693 2.025-1.196 3.037-1.637.886-.44 1.772-.693 2.658-1.07.38 0 .696-.315 1.076-.127-.76 1.449-1.392 2.96-2.531 4.156-.38 0-.57.378-.95.44-.19.253-.569.064-.822.19-.76.315-1.835.126-2.405.818.064.063.127.126.19.126 1.519 0 3.164.126 4.81.063.19-.063.379-.252.379-.44-.19-.441.063-.819.253-1.134.127-.566.506-.944.696-1.511.506-1.007 1.139-2.015 1.709-3.022.063 0 .126.126.19.063 1.138-.378 2.53 0 3.796-.063l.19.126c.126 1.196-.127 2.392-.253 3.589-.443 1.448-2.088 1.259-3.29 1.637-.317.189-.887.126-.887.566 1.456.315 3.1.126 4.62.126.253-.126.316-.315.442-.566.064-.315.38-.567.254-.945-.254-.378 0-.881-.127-1.385.063-.126.063-.315 0-.504.19-.692.127-1.574.316-2.267.443.063.633.567 1.14.567.252-.378-.254-.504-.38-.692.57-.126 1.139 0 1.645.251l-.253.252c-.127.252.063.504.316.567.19.063.317-.063.443-.126.317-.189 0-.44.063-.63 1.835.315 3.544.756 5.252 1.511.443.127.886.504 1.456.504-.507-.504-1.203-.692-1.899-1.007-.442-.252-1.012-.252-1.328-.63.063-.126.253-.063.316-.189.823-.126 1.582-.692 2.151-1.385.064-.126.317-.126.317-.315-.253-.252-.57.063-.886.063-1.012.19-1.455 1.385-2.531 1.637-1.266-.315-2.531-.566-3.797-.881-.633-.126-1.265-.126-1.835-.378 0-.504.127-.881.19-1.385.063-.126.127-.315.127-.504a.493.493 0 0 1 .253-.252l.506-.252c.633-.125 1.329-.063 1.962 0 .38.19.822.19 1.202.252.19-.126.443-.126.633-.126.759-.44.253-1.322.316-2.078a18.896 18.896 0 0 0 1.898-2.014c0-.19-.126-.378-.253-.504-.19-.063-.38-.063-.506.126-.317.189 0 .504 0 .755-.317.378-.76.756-1.14.945 0 0-.062 0-.189.063l-.063-.126a4.34 4.34 0 0 1-.19-.504c-.127-.189-.253-.504-.38-.692-.443-1.07-1.202-1.7-1.898-2.582-1.266-1.637-3.227-2.518-5.189-3.211-1.961-.693-3.923.189-5.694.819-.57-.127-.823-.567-.95-1.07-.126-.945.127-1.827.443-2.645.064-.63.507-1.07.696-1.637.443-1.386.886-2.77 1.013-4.282.063-.944-.633-1.574-1.329-1.952-.443-.126-1.013-.126-1.392.252-.316.693-1.013 1.133-1.582 1.448-.063.44.443.126.633.315.57.126 1.139-.063 1.582.252.063 1.007-.507 1.826-1.013 2.518-.822 1.26-1.708 2.519-2.278 3.841v-1.26h-11.77c-.569-.188-1.075-.818-1.708-.818-1.392-.566-2.278.882-3.67.693-.19.126-.126.252-.19.378-.063.063-.19 0-.253 0-.063-.567-.253-1.134-.38-1.7-.126-.252-.063-.567-.19-.819-.758-2.14 1.9-.503 2.469-1.763.443-1.07-.886-1.196-1.33-1.952v-.314c-.379-.378-.822-.504-1.075-1.07.19-.63.253-1.26.063-1.89 0-.126-.126-.315-.316-.252-.443.63-.823 1.134-1.265 1.763-.443-.314-.886-.818-1.456-1.07-.38-.063-.696-.44-1.139-.252-.063.126 0 .252.063.378 0 .944.507 1.763 1.203 2.392l.063.378c-.443 1.008-.316 2.204-.443 3.274-1.139 2.834-2.91 5.541-5.378 7.493-1.393 1.574-3.1 3.085-3.29 5.29-.064.377.063.755-.19 1.007-.823-.315-1.646-.693-2.279-1.197-1.139-.818-2.784-.692-3.48-2.14-.316-.567.064-1.134.317-1.575.822-.818.696-2.203.253-3.148-.127 0-.127.126-.19.126-.063 1.448-1.266 2.456-.76 4.093.127.503.317.755.444 1.196-.19-.063-.443-.063-.57-.126-.57-.063-1.076-.315-1.645-.252-1.14.504-2.658-.126-3.607.882-.126 0-.316.063-.316.252.57 0 1.075.125 1.582.125.886.126 1.455-.566 2.024-.881h.127c.253-.252.696-.126 1.012-.126 1.582.189 2.785.882 4.05 1.7v.126c-.506.189-1.076.378-1.582.63-.57.44-1.202.944-1.392 1.637-.38.63.127 1.133.38 1.7 0 .252.063.566.253.63.76-.82.063-1.89.19-2.834.19-.756.886-1.07 1.582-1.26 1.392-.566 2.404.567 3.543 1.197 0 1.133.127 2.204-.126 3.337-.317.126-.76.189-1.14.189-1.961.126-3.48 1.196-5.251 1.826-.76.252-1.709.252-2.531.567.632.189 1.265-.063 1.898-.063 2.404-.378 4.24-2.204 6.897-1.89l.063.064c-.316.63-.696 1.133-1.139 1.637-.063-.252-.126-.504-.316-.63s-.443 0-.57.19a.4.4 0 0 0 0 .377c.127.189.317.252.57.378-.063.252-.316.315-.443.503-.696 1.134-2.088.693-2.91 1.511-.127.19-.57.252-.38.567a3.498 3.498 0 0 0 2.53-.63c.887-1.007 1.899-1.951 2.785-2.959.126.819-.063 1.637-.57 2.267-.19-.126-.38-.315-.632-.378-.253.063-.443.315-.443.504.126.189.19.378.38.504-.823.566-1.899.63-2.848.881-1.772.189-3.544.378-5.379.378-.885-.063-1.835.252-2.657 0-.95.189-1.962-.126-2.721.378-.127.126 0 .252 0 .377 1.139.756 2.658.126 3.986.378h9.745c.696 0 1.455-.063 2.025-.378 1.265-.692 1.961-2.014 2.594-3.274.253-.44.443-.944.506-1.51.253-.82 1.013-1.449 1.835-1.512.127 1.26-.126 2.581-.443 3.778-.126.818-.696 1.574-.316 2.393.063.377.506.377.823.44 2.974-.063 5.948-.189 9.111.063.57.126 1.076.252 1.709.252.063-.063.19-.126.126-.252-.063-.252-.253-.63-.57-.692-.062-.126-.252-.126-.379-.19-1.582-.88-3.48-.44-5.315-.377-.95.126-1.898.252-2.72-.252-.38-.44-.127-1.826-.127-1.826 0-.315.38-1.511.759-2.707.76.188 2.594 1.322 2.594 1.322.886.315 1.645.818 2.468 1.322 3.354 1.826 5.568 4.911 7.087 8.311 0 .252.253.567.127.819-.507-.756-1.266-1.26-1.899-1.889-.19-1.133-.886-2.267-1.898-2.77-.38-.567-1.139-.567-1.772-.756l-8.985-.063c-7.277-.126-13.984.189-21.198.126-1.012-.126-2.214-.44-2.53-1.511-.19-.378-.19-1.008 0-1.385.252-.504.759-.63 1.265-.693.38.189.633.567.822.819 0 .314-.253.63-.38.881 0 .126.127.315.317.189.317-.126.57-.504.633-.819 0-.188.126-.44-.063-.566-.127-.504-.696-.882-1.14-1.008-.632-.063-1.265.126-1.708.567-.57.504-.57 1.385-.38 2.078.38 1.07 1.582 1.826 2.658 1.952l23.982.126c2.341.126 4.999-.252 7.34.188.886.252 1.772.882 2.025 1.89 0 .062-.127 0-.19 0-1.962-1.26-4.493-1.764-7.024-1.449-1.012-.063-1.898.315-2.784.567-.443.126-.886-.126-1.202-.378-.886-.818-2.468-.755-3.607-.44v.188c1.202-.126 1.898.945 3.037 1.07.254.064.443-.251.696 0-1.139.567-2.214 1.197-3.416 1.512-.38-.063-.57-.44-.886-.63-.443-.504-1.33-.315-1.962-.378-.19.063-.443-.126-.57 0 .19.378.633.63 1.076.819.633.252 1.33 0 1.899.378-.127.189-.38.189-.507.378-1.139.44-2.151 1.51-3.417 1.385-1.328.126-2.72-.252-3.67-1.197-.38-.944-1.392-1.51-2.467-1.448-.064.063-.19.063-.127.19.57.314.95.944 1.519 1.321.316.441 1.012 0 1.329.441.442.315 1.075.567 1.581.693.38.189.823.252 1.266.377l-.19.126c-2.214.756-4.809.819-7.34.693-.76 0-1.455-.252-2.215-.189.127.126.38.252.57.378-.19.126-.443.189-.633.189-.316.063-.633.126-.949.252-.38 0-.76.126-1.076.252-.443.44-.886.881-1.392 1.133 0 .126 0 .252.127.252.443-.19 1.075-.063 1.518-.252.823-.063 1.266-.945 1.899-1.322.696-.567 1.708-.441 2.53-.315.507.126-.063.315.127.63.19.188.38.377.633.314.063-.063.127-.126.19-.126a.57.57 0 0 0 0-.63c.316-.188.822 0 1.202-.125.95 0 1.898-.19 2.784-.252.127 0 .317-.189.443 0-.063.189-.316.189-.19.504.064.252.317.314.507.377.253-.126.443-.252.38-.566-.064-.19-.254-.19-.38-.252.506-.252 1.139-.315 1.645-.567.38-.063.696-.189 1.012-.378.317 0 .57-.314.886-.189-.127.441-.316.819-.506 1.197-.38 1.322-.696 3.022 0 4.281.063 0 .126 0 .126-.063-.506-1.322-.19-2.833.19-4.03.38-2.077 2.531-2.707 4.05-3.525l.063.126c-.443 1.07-1.012 2.14-.949 3.463.063.189-.127.44 0 .566.443-.189.696-.692.886-1.133.19-1.133-.443-2.519.696-3.337 2.025-.819 3.923-1.826 6.264-1.826.064.063.253-.063.253.126-.506.567-1.202 1.07-1.455 1.763-.76 1.07-.76 2.96-.443 4.281.19.756-.443 1.197-.76 1.763-.126.19-.189.567-.316.819l.633-.063c.443-.44.823-1.007.823-1.637a.72.72 0 0 0 .443.504c.19-.252-.127-.504-.19-.756.38-.189.57.252.886.378.506.126.949.378 1.518.378l.19-.19c-.57-.818-1.645-1.007-2.594-1.07-.443-.755-.443-1.763-.38-2.77.127-.504.19-1.07.507-1.511.126-.378.442-.693.695-.945.443-.44 1.013-.692 1.582-.818h.064v.063c-.696.503-.76 1.26-1.14 1.889-.442.63-.632 1.448-.19 2.14.127.315.064.819.444 1.07.316-.44.38-1.007.506-1.51-.063-.819-.57-1.574-.127-2.393.254-.63.76-.881 1.33-1.07 1.391-.126 2.53.566 3.733 1.07.253.189.696.315.696.693 0 .692-.38 1.322-.886 1.637-.696.378-1.645.44-2.278 0-.38-.378-.506-1.008-.38-1.511.253-.315.633-.567 1.076-.378.253.126.443.378.76.189.126-.063.189-.252.126-.378-.253-.126-.38-.504-.76-.567-.443-.063-1.012-.063-1.328.252a1.793 1.793 0 0 0-.57 1.7c.19.819.76 1.385 1.519 1.574 1.139.252 2.341-.063 3.037-1.07.316-.315.38-.693.57-1.07 1.202.692 2.088 1.951 2.53 3.274 0 .44.127.881 0 1.259l.886.063c-.063-.189 0-.44.064-.567.316-1.637 1.328-3.022 2.53-4.03.444-.251.317.315.444.504a3.216 3.216 0 0 0 2.151 1.89c1.013.188 2.025-.064 2.658-.882.316-.567.696-1.449.19-2.078-.317-.44-.823-.63-1.33-.63-.632 0-1.012.44-1.391.945 0 .188 0 .44.126.503.127 0 .317 0 .38-.126.063-.377.38-.566.696-.755.253-.126.57 0 .76.126.252.189.316.566.379.944-.063.441-.38.945-.823 1.134-.696.377-1.771.188-2.34-.19-.317-.314-.444-.692-.697-1.07-.063-.377-.19-.755 0-1.133 1.076-.63 2.215-1.133 3.544-1.26.506.127.949.441 1.328.82 1.14 1.133-.253 2.833.57 4.092.316-.063.316-.44.443-.693.38-.881-.127-1.826-.317-2.707-.316-.567-.443-1.008-.949-1.448.127-.063.19-.063.317-.063.506.377 1.075.755 1.518 1.259a6.598 6.598 0 0 1 .95 4.03c-.19.755-1.013 1.07-1.583 1.385-.253.189-.569.504-.696.818.317.19.697 0 1.013-.125.443-.19.76-.756 1.075-1.07.064 0 0 .125.064.125 0 .252-.127.63.126.693.127-.378.127-.819.19-1.26.317.378.38.756.443 1.26.19.44.57 1.07 1.202 1.133.127-.252 0-.44-.063-.63-.063-.63-.57-.944-.949-1.385-.886-1.196-.443-3.022-1.139-4.344-.253-.693-.76-1.26-1.329-1.826l.127-.126c1.202 0 2.214.377 3.353.566 1.33.693 3.354.504 3.987 2.267.253 1.008.696 1.889 1.392 2.645l.063-.063c.127-.252.127-.693 0-.882-.126-1.26-1.202-1.511-1.772-2.581l.064-.126c.57.189 1.202.315 1.835.566 1.961.567 3.353 2.456 3.607 4.47 0 1.575-.317 2.897-.886 4.22-.064.188-.443.44-.19.566.253-.189.316-.504.443-.756.822-1.385 1.202-3.21.822-4.974 0-.314-.38-.566-.253-.881a.575.575 0 0 0 .443.189c.127-.126.38-.126.443-.252 0-.126.127-.315 0-.44-.127-.19-.443-.19-.696-.19-.127.126-.253.378-.316.567-.254-.44-.507-.945-.886-1.322l.063-.063c1.139.377 2.151.944 3.227 1.196.253.126.506.252.886.252.95.378 2.025.504 3.037.755.76-.063 1.33.252 2.088.126v-.063c-.253-.377-.886 0-1.202-.252-1.708-.188-3.353-.63-4.872-1.196 0-.063.126-.063.19-.063.253-.126.443-.377.38-.63-.127-.188-.317-.251-.57-.251a.887.887 0 0 0-.38.44c0 .19.19.441.38.504-.063.063-.127 0-.253 0-.76-.378-1.519-.692-2.278-1.007-.253-.063-.506-.252-.76-.315-.569-.252-1.139-.567-1.708-.756-1.582-.818-3.354-1.259-4.999-1.825-.38-.127-.696-.19-1.075-.315-.633-.19-1.203-.315-1.836-.504-2.088-.504-4.935-.567-6.707.567-.316-.126-.443.377-.633.063.507-1.386 2.025-1.826 3.354-1.826 9.871-.126 19.173-.19 28.917-.315 1.14 0 2.278-.378 2.848-1.385.19-.504.253-1.575-.064-2.204Zm-19.932-4.722v.818h-2.53c0-.063-.127-.063-.064-.126.886-.189 1.645-.755 2.531-.944l.063.252Zm-2.53-1.197c.19-.189.316-.44.442-.692 0-.252-.126-.378-.253-.504.19-.189.443-.126.696-.189.633.378 1.266.944 1.392 1.637-1.012.44-1.961.882-3.037 1.133.19-.44.443-.944.76-1.385Zm-8.796-8.06.063 2.268c.76 1.322 1.772 2.77 3.227 3.274.76.63 1.772 1.385 2.848.818.57-.189.633.63.886.945.316.881-.38 1.574-.443 2.392a.932.932 0 0 1-.633.567c-.38.063-.696.315-1.139.315-3.227 1.26-6.517 2.518-9.048 5.1.126-.315.19-.693.253-1.07-.064-.378 0-.819-.253-1.07-.064-.127-.19-.505-.19-.63l3.1-1.952c.76-.378 1.329-1.512 1.329-2.834v-8.122Zm-16.705 4.912c.063.063.127.063.19 0 .633-.44.443-1.385.443-2.015.126-.755-.38-1.133-.633-1.826V25.86h2.658c.19.063.38.251.57.251l.189-.252h12.782v12.782c-.064 1.008-.443 1.826-1.14 2.267L40.422 45h-.064a.72.72 0 0 1-.506.188.72.72 0 0 1-.506-.188l-6.454-4.093c-.696-.44-1.013-1.322-1.14-2.267.064 0 .064-3.274.064-3.274ZM30.36 29.26c.126-.567.316-1.07.822-1.386.127.063.127.126.127.19v2.707c-.19-.504-1.202-.882-.95-1.512Zm4.745 16.307c-2.53-1.826-5.315-3.526-8.162-4.911.253-.756.506-1.322.57-1.448.063-.378.19-.693.126-1.133.19-.504.126-1.134.126-1.7.127-.756.506-1.512.76-2.33.126-.378.253-.756.443-1.134.126-.503.19-.881.506-1.259.76.504 1.518.504 1.898 1.26v5.54c0 1.323.57 2.519 1.329 2.834l2.657 1.7c.064.944-.506 1.7-.253 2.581Zm3.797 5.226c-.823-1.763-1.898-3.085-3.164-4.533-.063-.19-.253-.44-.126-.693.442-.44.57-1.322.316-1.889-.063-.126-.19-.252-.19-.377l-.19-.19 3.797 2.393c.127.19.38.252.57.252a.72.72 0 0 0 .506-.189l1.265-.818c-.949 1.385.57 3.4-.57 4.722v.126c-.379.44-.506.881-1.012 1.196-.57-.252-.822-.944-1.139-1.385-.57-.504-.57-1.574-.19-2.33.19-.692-.126-1.322-.19-1.952l-.316-.188c-.57.755-.822 1.951-.38 2.896.254.44.254 1.07.633 1.448.19.693.696 1.196 1.076 1.826.127.252-.127.315-.253.44-.253-.188-.19-.566-.443-.755Zm1.645 2.77c-.126.315-.316.567-.253.882h-.127c.064-.378-.316-.567-.19-1.007-.19-.315-.19-.693-.379-1.008-.19-.377.19-.566.38-.818.38.126.443.503.696.755.19.441-.127.756-.127 1.197Zm-.126-2.392c.822-1.07 1.518-2.267 1.771-3.589.19-.126.064-.44.19-.567-.063-.377.19-.818 0-1.133.127-.567-.696-1.07-.126-1.385l-.127.063 1.582-1.008c-.19.567-.38 1.511-.19 2.078.063.44.443.945.127 1.385-1.203 1.449-1.835 3.149-2.658 4.786-.316-.063-.443-.378-.57-.63Z"/>
  <path d="M67.313 51.99c-1.329-.315-2.657.188-3.543 1.133-.064.063 0 .126.063.189.126 0 .253-.063.316-.063 1.203-.063 2.468-.252 3.29-1.07 0-.064-.126-.127-.126-.19ZM62.947 53.06c.253-.126.506-.315.38-.693-.127-.377-.57-.377-.76-.126-.063.126-.253.19-.19.441.19.189.317.378.57.378ZM15.553 52.682c.063.126.127.378.316.378.127 0 .317 0 .443-.126.127-.126.19-.378.127-.504-.127-.189-.38-.189-.57-.189-.19.126-.316.252-.316.441ZM12.073 54.193v-.189c-.95-.692-1.709-1.637-2.91-1.637-.127.063 0 .126 0 .19.569.251.948.755 1.328 1.258.38.378.949.504 1.582.378ZM70.73 52.367c-.95.378-1.835 1.386-2.215 2.33.127.189.317-.063.443-.063 1.013-.378 1.519-1.385 2.088-2.267h-.316ZM17.135 52.934c.126.126.19.315.443.252.19-.126.38-.19.316-.504-.126-.189-.316-.315-.506-.252-.127.126-.38.252-.253.504ZM73.83 54.004c.254-.377.127-.818.317-1.133l-.127-.126c-.759.315-1.265 1.133-1.645 1.889-.126.252-.443.504-.316.693.886-.126 1.265-.756 1.772-1.323ZM3.657 53.123c-.127.189 0 .504.19.567a.61.61 0 0 0 .57-.126c.126-.19.063-.378 0-.567-.19-.189-.633-.063-.76.126ZM3.088 53.752c0-.125-.064-.188-.064-.377-.126-.19-.38-.315-.57-.19a.572.572 0 0 0-.252.505c.126.188.316.377.57.314.126 0 .252-.126.316-.252ZM4.986 53.816c.19.188.38.44.76.314.316-.063.252-.378.189-.566-.19-.19-.38-.252-.633-.19a.474.474 0 0 0-.316.441ZM9.478 53.627c-.126.063-.253.125-.316.251-.126.19.127.315.19.441.126 0 .316.063.443-.063.19-.063.126-.315.19-.44-.127-.19-.38-.064-.507-.19ZM75.919 53.627c-.19.063-.443.188-.317.503.127.19.317.252.57.252.19 0 .316-.189.38-.378-.064-.252-.38-.377-.633-.377ZM71.363 53.752a.763.763 0 0 0-.443.441c.126.252.443.504.76.378.126-.063.316-.189.316-.44-.127-.253-.254-.379-.633-.379ZM74.843 54.508a.53.53 0 0 0 .253-.44c-.063-.316-.506-.316-.696-.19-.127.126-.316.315-.127.504.127.189.38.189.57.126ZM3.784 54.508c-.127-.189-.317-.315-.57-.252-.19.063-.253.315-.253.504 0 .252.253.378.506.378.253-.126.317-.378.317-.63ZM70.477 55.453c.253-.126.443-.378.316-.63-.126-.252-.633-.44-.822-.063-.19.126-.064.378 0 .504.19.126.316.188.506.188ZM16.755 55.516c.064-.126.38-.19.253-.441-.126-.126-.253-.378-.506-.315-.126.063-.19.126-.316.252-.064.189.063.378.19.504.063.063.253.063.38 0ZM75.539 54.886c-.19.063-.19.189-.316.252 0 .189 0 .44.253.566a.61.61 0 0 0 .57-.126c0-.126.19-.188.126-.377-.127-.19-.443-.315-.633-.315ZM73.957 55.893c0-.126.19-.063.253-.126.19-.063.443-.189.38-.503-.127-.126-.19-.252-.38-.378-.19-.063-.316.126-.443.126-.443.315.253.566-.063.881-.443 0-1.012-.126-1.329.19.19.188.506.188.696.314.633.693 1.582.882 2.468.945v-.19c-.57-.377-.95-.88-1.582-1.259ZM63.58 55.264c-.063.252.126.377.253.566.19.063.38.063.57-.126 0-.126.19-.252.126-.377-.127-.378-.76-.441-.95-.063ZM9.352 56.208c0-.378-.443-.504-.76-.315 0 .126-.126.19-.126.378.063.189.253.252.443.315.253 0 .38-.189.443-.378ZM9.289 57.656c-.127.19-.507.504-.443.693.949-.063 1.582-.819 1.961-1.637.127-.378.506-.567.506-.882h-.126c-.696.567-1.519 1.008-1.898 1.826ZM63.01 56.02c-.126.188-.253.377 0 .566.127.126.317.252.507.189.19-.126.442-.315.442-.567-.253-.252-.696-.504-.949-.189ZM64.719 56.9c.063 0 .19 0 .253.064a.552.552 0 0 0 .443-.567c-.064-.315-.443-.315-.696-.315-.19 0-.253.19-.38.378.063.189.19.315.38.44ZM15.173 56.397c-.19-.126-.253-.378-.57-.252-.126.126-.316.252-.316.504.127.189.254.315.443.315.253-.19.443-.315.443-.567ZM15.933 56.586c.063.189.253.252.443.315.253-.063.38-.19.442-.441-.063-.252-.316-.378-.569-.378-.127.126-.316.252-.316.504ZM70.73 58.223c-.316-.693-.823-1.322-1.392-1.826-.19-.063-.443-.378-.696-.126.253.756.696 1.385 1.265 1.952.38.063.697.504 1.076.378.063-.19-.126-.315-.253-.378ZM71.173 56.271c-.19.063-.38.126-.443.315-.127.189.063.44.19.567.253.063.57.126.696-.126a.61.61 0 0 0 .063-.567c-.19-.063-.316-.189-.506-.189ZM19.096 57.09a.576.576 0 0 0-.442-.19c-.127.127-.443.19-.317.504.063.252.38.378.57.315.316-.126.253-.44.19-.63ZM65.984 60.49c-.063-.63-.316-1.26-.632-1.763l-.697-.756c-.253-.063-.442-.504-.696-.315 0 .126 0 .19.127.252.443 1.133.696 2.204 1.772 3.022h.126c.127-.126-.063-.252 0-.44ZM22.387 57.908c-.063 0-.063 0 0 0l-1.202-.252c-.76-.126-1.456.252-2.152.441-.126 0-.126.126-.126.189 1.075.755 2.467.315 3.48-.378ZM16.692 57.782c-1.329.126-2.784.819-3.227 2.204.253.126.38-.126.57-.189 1.012-.252 1.771-1.26 2.657-1.763v-.252ZM63.39 58.853c-.127.063-.316.125-.38.251 0 .19 0 .378.253.504a.307.307 0 0 0 .443 0c.19-.063.253-.315.19-.504-.126-.188-.316-.188-.506-.251ZM60.985 59.86c.317-.126.76-.315.886-.63-.063-.126-.253-.063-.316 0-.886-.188-1.709-.063-2.531.126-.127.126-.38.063-.38.252.696.19 1.456.567 2.341.252ZM16.692 59.923c-.063-.252-.253-.378-.506-.44-.127.062-.317.125-.38.251-.126.189.063.315.127.44a.494.494 0 0 0 .506.127c.19 0 .19-.252.253-.378ZM17.83 60.678c.19-.125.254-.314.317-.503-.126-.19-.316-.44-.57-.44-.126.062-.316.125-.316.188-.063.189 0 .378.064.504a.576.576 0 0 0 .506.252ZM62.567 60.175c-.063.189-.316.315-.19.504.064.125.127.314.317.377.19.126.443.063.57-.126.126-.126.19-.252.19-.503a.553.553 0 0 0-.887-.252ZM64.023 60.175c-.317.063-.38.44-.317.692.064.063.127.252.317.19.316.125.38-.19.57-.316.063-.125 0-.188-.064-.377-.127-.063-.316-.252-.506-.19ZM17.008 61.749c.19-.126.317-.378.253-.693a.518.518 0 0 0-.632-.314c-.317.125-.317.503-.317.692.127.378.443.378.696.315ZM16.629 63.008v.126c.38.252.759-.126 1.202-.189.696-.377.823-1.259.886-1.952-.633.693-1.582 1.26-2.088 2.015ZM59.024 61.182c-.127.063-.253.126-.316.252-.064.189-.064.44.126.504.19.063.443.126.57 0 .063-.126.253-.252.126-.378-.127-.189-.316-.378-.506-.378ZM20.995 62.379c-.317-.315-.57-.756-.95-1.07-.063 0-.126 0-.19.062.254.882.19 1.826.697 2.582.253.251.443.692.886.692-.19-.63 0-1.385-.317-1.952.064-.125-.126-.125-.126-.314ZM60.226 61.434c-.126.126-.316.189-.253.44.127.127.316.19.443.253.127-.126.316-.19.316-.378 0-.252-.253-.378-.506-.315ZM62.314 61.749h-.126c-.127 1.007.633 1.7 1.328 2.33h.127c.127.063.127-.126.127-.19-.064-.944-.823-1.573-1.456-2.14ZM61.681 63.638c.127-.126.254-.252.254-.504-.127-.189-.317-.44-.57-.378-.126.126-.38.252-.38.504 0 .44.38.44.697.378ZM60.163 63.197c-.886.378-1.645 1.26-1.898 2.204 0 .126-.064.315.063.378.633-.693 1.582-1.134 1.898-2.078-.063-.19.316-.504-.063-.504ZM61.555 64.142c-.127.126-.38.189-.316.44.126.19.38.252.569.252.127-.126.38-.252.38-.44-.19-.19-.443-.315-.633-.252ZM36.434 20.76h7.34a.633.633 0 0 0 .633-.63c0-.378-.253-.63-.633-.63h-7.34a.633.633 0 0 0-.633.63c0 .378.317.63.633.63Zm7.087-1.008h.253c.507 0 .507.882 0 .882-.38 0-1.012-.882-.253-.882Zm-3.037 0h.696c.38 0 1.076.882.38.882h-.697c-.38 0-1.075-.882-.38-.882Zm-2.974 0h.696c.38 0 1.076.882.316.882h-.696c-.38 0-1.012-.882-.316-.882ZM44.534 30.519c-.317 0-.76-.126-.76.315 0 .314.443.126.76.126.316 0 .759.188.759-.126 0-.441-.443-.315-.76-.315Z"/>
  <path d="m45.356 29.952.57-2.015-1.392.504-1.392-.504.506 2.015-1.076-.189.316 1.197-.316 1.259 1.139-.315-.57 2.204 1.393-.504 1.392.504-.443-2.204.949.252-.38-1.196.38-1.26-1.076.252Zm-.19 1.637h-1.139c-.506 0-.506-.315-.506-.818 0-.693.696-.126.95-.756.316.819 1.012-.063 1.012.819 0 .314 0 .755-.317.755ZM40.294 30.393l.127-.189h-.254l-.126-.252-.127.252h-.253l.127.189-.19.189.253.063v.252l.19-.126.253.126v-.252l.19-.063-.19-.19ZM38.712 32.03v.252l.253-.126.19.126v-.252l.253-.063-.19-.189.127-.189h-.253l-.127-.252-.126.315-.253-.063.126.19-.19.188.19.063ZM41.18 31.4l-.253.063-.127-.252-.126.252-.253-.063.126.252-.19.19h.253v.25l.19-.125.253.126v-.252h.19l-.19-.189.127-.252ZM41.117 32.785h-.127l-.063-.125-.063.126h-.127l.063.125-.126.063.126.063v.126l.127-.126.126.126v-.126l.127-.063-.127-.063.064-.126ZM40.104 33.163h-.38l-.252-.44-.254.44h-.38l.19.315-.316.378.38.063v.44l.38-.314.38.315v-.441l.379-.063-.317-.378.19-.315ZM38.396 16.226l-.127 2.267 1.709-1.511 1.708 1.51-.19-2.266 2.278-.378-1.835-1.322 1.076-2.015-2.215.63L39.978 11l-.886 2.14-2.215-.629 1.14 2.015-1.9 1.322 2.279.378ZM29.157 59.797l.317 1.385c.126.441.253.567.506.693.38.126.823.063 1.076 0 .316-.063.696-.252.886-.504.19-.252.126-.63.063-.881l-.317-1.323c-.063-.251.064-.314.317-.44V58.6l-1.076.252v.125c.443-.062.506.063.57.315l.316 1.26c.063.252.19.881-.696 1.07-.696.189-.823-.378-.886-.63l-.316-1.385c-.064-.378.063-.378.38-.504v-.126l-1.646.441v.126c.253-.063.38-.126.506.252ZM33.46 60.049l.38.063c.38.063.57.126.633.378 0 .063.063.44-.507.566-.632.126-1.012-.252-1.202-.63l-.126.064.19 1.007.126-.063c0-.063 0-.126.127-.189.126-.063.38.063.885-.063.886-.189 1.14-.755 1.013-1.133-.127-.44-.506-.63-.696-.63l-.76-.126c-.443-.063-.569-.126-.632-.377-.064-.252.19-.441.443-.504a1.012 1.012 0 0 1 1.139.566l.126-.062-.19-.882-.126.063c0 .063 0 .126-.127.189-.126.063-.38-.063-.822.063-.95.189-.95.818-.886 1.07 0 .126.063.441 1.012.63ZM35.232 58.853c.063-.693.57-.756.886-.819l.19 2.204c.063.378-.064.378-.443.44v.127l1.771-.19v-.125c-.38 0-.506 0-.506-.315l-.19-2.204c.38 0 .886-.063 1.013.63h.126l-.063-.819-3.037.315.063.819.19-.063ZM40.104 60.427c-.316-.063-.443-.063-.443-.378v-.819h.127l1.012 1.323h.95l1.012.126v-.126c-.19-.063-.38-.063-.38-.252 0-.063.127-.252.253-.504l1.14.126c.063.126.19.504.126.567 0 .126-.127.126-.443.126v.126l1.645.188v-.126c-.253 0-.316-.188-.506-.63l-.823-2.329h-.126l-1.266 2.204c-.19.252-.253.44-.506.44-.063 0-.127 0-.127-.062l-1.012-1.197c.253-.063.76-.188.823-.692 0-.693-1.076-.756-1.393-.756l-1.645-.063v.126c.253 0 .443.063.443.378l-.063 1.826c0 .315-.127.378-.443.378v.126l1.708.063-.063-.19Zm3.29-1.637.38 1.07-.949-.126.57-.944Zm-3.67-.756c0-.126.064-.189.317-.189.38 0 .633.19.57.63 0 .566-.254.63-.95.63l.064-1.07ZM48.52 60.678h-.127c-.316.441-.632.693-1.392.567-.316-.063-.443-.126-.38-.315l.38-1.952c.064-.377.19-.314.57-.314v-.126l-1.709-.315v.126c.19.063.443.126.38.378l-.38 2.015c-.063.251-.19.251-.506.188v.126l2.848.504.316-.882Z"/>
  <path d="m48.267 61.686 1.708.378v-.126c-.253-.063-.443-.126-.38-.378l.444-2.015c.063-.252.316-.252.506-.189v-.126l-1.709-.377v.125c.19.063.443.126.38.378l-.443 2.015c-.063.252-.253.252-.506.189v.126ZM50.102 62v.127l1.012.126v-.126c-.19 0-.38-.063-.38-.19 0-.062.127-.251.254-.503l1.139.126c.063.126.19.44.19.567 0 .126-.127.126-.443.126v.126l1.645.189v-.127c-.253 0-.317-.188-.506-.63l-.886-2.392H52l-1.329 2.204c-.19.252-.253.378-.57.378Zm1.582-1.762.38 1.07-.95-.126.57-.944ZM39.092 29.134v.314c0 .063.063.126.126.126h1.076c.063 0 .127-.063.127-.126v-.314c.126-.126.19-.252.19-.504 0-1.008-.57-.063-.886-.945-.254.756-.886.126-.886.882 0 .252.063.44.253.567Zm.633-.882c.316 0 .759-.126.759.378 0 .378-.38.126-.696.126-.316 0-.696.189-.696-.126 0-.504.316-.378.633-.378ZM49.47 40.97a.432.432 0 0 0 .442-.44c0-.252-.19-.44-.443-.44a.431.431 0 0 0-.443.44c0 .252.19.44.443.44ZM47.318 26.678c.126 0 .19-.126.19-.252l-.19-.44s-.19.377-.19.44c-.063.126.063.252.19.252ZM32.385 26.678c.126 0 .19-.126.19-.252l-.19-.44s-.19.377-.19.44c0 .126.063.252.19.252ZM36.118 26.678c.126 0 .19-.126.19-.252l-.19-.44s-.19.377-.19.44c0 .126.063.252.19.252ZM39.851 26.678c.127 0 .19-.126.19-.252l-.19-.44s-.19.377-.19.44c-.063.126.064.252.19.252ZM43.584 26.678c.127 0 .19-.126.19-.252l-.253-.44s-.19.377-.19.44c0 .126.127.252.253.252ZM32.638 31.526c0-.063-.19-.44-.19-.44l-.253.44c0 .126.126.252.19.252.126 0 .253-.126.253-.252ZM32.638 36.5c0-.063-.19-.44-.19-.44l-.253.44c0 .126.126.252.19.252.063 0 .253-.126.253-.252ZM33.017 40.656c.127 0 .19-.126.19-.252 0-.063-.19-.44-.19-.44l-.253.44c0 .126.127.252.253.252ZM35.928 42.482c0 .126.127.252.19.252.126 0 .19-.126.19-.252 0-.063-.19-.44-.19-.44l-.19.44ZM47.255 31.526c0 .126.126.252.19.252.063 0 .19-.126.19-.252l-.19-.44s-.19.377-.19.44ZM47.255 36.5c0 .126.126.252.19.252.063 0 .19-.126.19-.252l-.19-.44s-.19.377-.19.44ZM46.685 40.404c0 .126.127.252.19.252.126 0 .19-.126.19-.252l-.19-.44s-.19.377-.19.44ZM43.521 42.482c0 .126.127.252.19.252.127 0 .19-.126.19-.252l-.19-.44s-.19.377-.19.44ZM39.725 44.686c0 .126.126.252.19.252.126 0 .19-.126.19-.252l-.19-.441s-.19.378-.19.44ZM45.862 38.452c0-.377.38-.503.38-.881-.127-.378-.57-.378-.696-.756.127-.126.38-.063.506 0 .063.063.19.126.317.063l.126-.378s-.19-.188-.253-.188c-.38.125-.823.125-1.076.503 0 .252.19.504.38.63.127-.063.19.126.253.189 0 .126-.063.189-.19.189-.253-.252-.759.126-1.012-.252.126-.378.253-.756 0-1.07 0-.064.126-.127.063-.19-.126-.314-.443-.063-.696-.063-.38-.062-.633.127-.822.441 0 .126.063.252.19.378.126 0 .126 0 .19.126l-.254.126c.063 0 .063.063.063.189-.19.063-.316-.19-.38-.252 0-.189 0-.504-.252-.567a.64.64 0 0 0-.19.063c-.063.063-.127.19-.127.378 0 .189.064.44.064.44s.696.505.885.882c-.19.441-.19 1.008-.696 1.26-.126.125-.126.251-.126.377l.126.126c.317-.189.886-.189.823-.755.126-.19.253-.441.443-.63.253-.063.443.063.506.252-.063.378-.316.567-.633.693-.063.063 0 .125 0 .188.127.19.38.126.507.063.38-.252.569-.755.885-.881.064.252-.443.315-.126.567.19-.063.506 0 .633-.252-.064-.441.632-.63.19-1.008ZM28.904 40.341c-.253 0-.443.19-.443.378 0 .252.19.44.443.44a.431.431 0 0 0 .443-.44c0-.189-.19-.378-.443-.378ZM4.29 54.76c0 .252.19.44.443.44a.431.431 0 0 0 .443-.44c0-.252-.19-.44-.443-.44a.431.431 0 0 0-.443.44ZM25.867 62.63v.126l1.012-.126v-.126c-.19 0-.443 0-.443-.125 0-.063.064-.252.127-.567l1.139-.126c.063.126.253.44.316.504 0 .126-.063.126-.38.189v.126l1.646-.19v-.125c-.253.063-.316-.126-.633-.504l-1.392-2.078h-.126l-.823 2.393c-.127.44-.19.567-.443.63Zm1.139-2.077.633.944-.95.126.317-1.07Z"/>
  <path d="M28.651 58.097c-.443-.063-.822.252-1.202.126l-.823.189h-.253c-.38-1.008.76-1.637.443-2.645-.316-.566-.949-1.133-1.708-1.007-.823-.126-1.582.378-1.962 1.007-.57 1.26.127 2.519.38 3.715-.064.378.38.819 0 1.134-.76-.567-1.835-.819-2.784-.567-.317.126-.823-.063-1.013.315 1.076.566 2.405.503 3.607.44a.405.405 0 0 1 .38 0c.126.63-.127 1.512.253 2.078.443.567 1.202.756 1.898.819 2.278-.063 4.303-.756 6.391-1.26.316 0 .57-.188.886-.188 1.139-.252 2.341-.441 3.48-.504a5.828 5.828 0 0 0-1.012 2.204c-.317.692.506.755.759 1.133-.76.189-1.329.756-2.025 1.07-1.582-.063-2.91.567-4.366.693 0 .315.506.189.57.567-.064.252-.317.252-.443.377 0 .126 0 .19.126.19.127-.19.443-.064.633-.19.506 0 .886-.126 1.392-.188.443-.19.886-.19 1.265-.504.507-.126.823-.504 1.33-.63.759 0 1.391-.252 2.087-.315v.19c-.632.944-1.202 1.888-1.835 2.707-.126.189 0 .377.19.377.317.126.696 0 .95-.125.506-.882 1.012-1.763 1.391-2.645.19-.818.76-1.26 1.392-1.826.127-.063.254-.189.38-.063-.506.567-.822 1.134-1.202 1.7-.19.693-.253 1.574.38 2.141.316.252.759.189 1.139.189.949-.504 2.214.315 2.91-.63.443-.063.507.441.76.693.442.126.886.566 1.265.252 0-.252-.316-.504-.443-.756-.253-.504-.633-.944-.886-1.385-.126-.378-.38-.567-.38-.944.444.125.823.44 1.33.503.442.19.949.126 1.328.378.317.44.823.693 1.203.944.632.315 1.328.378 1.961.567.253 0 .633.189.76 0-.127-.126-.19-.189-.38-.252-.063-.315.443-.126.633-.378-.064-.126-.19-.188-.254-.188-.38-.19-1.202-.252-1.455-.378-.316-.063-.57-.19-.886-.252-1.455 0-2.278-1.322-3.48-1.826.253-.252.696-.44.886-.819.19-.377.316-.881.063-1.322-.19-.755-1.202-.692-1.772-1.07l.064-.063c.949-.063 1.771.189 2.657.378 2.341.315 4.556 1.196 7.024 1.259 1.329 0 3.037.063 3.733-1.26.127-.755.253-1.51.38-2.329.316-1.26 1.139-2.393 1.012-3.715-.316-.755-.886-1.26-1.708-1.511-.76-.189-1.645-.063-2.151.567-.886.692-.254 1.889-.254 2.896 0 .189 0 .378-.19.44-3.606-.314-6.897-1.196-10.44-1.573-.823-.126-1.645-.126-2.405-.252l-1.012-.126c-3.1.126-6.201.252-9.049 1.007-.569.126-1.265.19-1.898.441Zm2.468 9.382-.316-.315c.19-.19.57-.126.822-.252.633-.189 1.392-.44 2.088-.315-.759.63-1.708.693-2.594.882Zm15.376-.378c.57.252 1.772.504 2.658.63-.063.314-.696 0-.633.503-.76-.315-1.645-.44-2.215-1.07.064 0 .127-.063.19-.063ZM23.4 56.586c.063-.44.19-.945.57-1.26.57-.314 1.392-.251 1.961.064.19.126.317.251.38.503.127.441-.063.882-.38 1.134h-.253c0-.378 0-.756.127-1.134 0-.315-.253-.315-.443-.44-.443-.126-.76.063-1.14.251-.252.315-.442.693-.316 1.07.19.253 0 .63.127.945l-.063.126c-.253-.315-.696-.692-.57-1.26Zm1.14.693c.379.251.885.125 1.328.188.063.252.063.63-.127.819-.442-.126-.949-.063-1.202-.44.064-.127-.063-.379 0-.567Zm-.064-.819c.063-.189 0-.504.253-.567.19-.063.443-.063.443.126 0 .315-.063.567-.127.882-.316.063-.506-.126-.569-.441Zm11.516 7.933c-.126-.881.19-1.637.76-2.203.316-.063.759-.126 1.075.063-.633.188-1.455.315-1.582 1.133 0 .315-.063.504.064.756.253.503.886.251 1.202.63 0 .125-.127.251-.19.314-.38-.252-.886-.378-1.329-.693Zm-.886 1.7c.57-.251 1.203-.755 1.899-.566-.443.378-1.203.566-1.899.566Zm2.342.252c-.38.756-.76 1.574-1.203 2.33-.063.126-.253.126-.38.189 0-.378.38-.63.507-.882.506-.692.696-1.385 1.265-2.014.127.063-.19.188-.19.377Zm.632-1.448v.126h-.063l.063-.126Zm-.19-.63c-.442-.063-.822-.188-1.202-.314-.253-.252 0-.504 0-.819.38-.566 1.33-.818 1.772-.315-.063.567-.253 1.07-.57 1.448Zm.507 0c.063-.314.19-.755.38-1.07 0 .315-.127.756-.38 1.07Zm.316-2.014c-.316-.063-.506-.441-.822-.441.316-.126.569-.063.949 0 .063.126-.127.315-.127.44Zm.253.755v-.252.252Zm.063 1.134c0-.126.064-.19.064-.378.126-.126.253.126.316.189-.126.126-.253.189-.38.189Zm.317-1.574c.127-.315.127-.63.38-.882.253 0 .442 0 .696.126.063.504.696 1.133 0 1.574-.19.126-.57.315-.76.126-.38-.315-.38-.567-.316-.944Zm1.835-.693c-.063-.189.19-.063.316-.126l.76.063c-.38-.063-.886.881-1.076.063Zm1.202.378c-.316.126-.506.44-.822.503.19-.252.57-.566.822-.503Zm-.949 3.022c0 .063 0 .126-.063.189l-.57-.44a.603.603 0 0 1 .633.25Zm-.696-.756c.063-.063.19-.063.19 0h-.19Zm-.316-.377c.126-.126.19-.378.38-.378 0 0 0 .063.063.063-.127.126-.254.252-.443.315Zm-.57-.063h-.126l.126-.126c.127 0 0 .063 0 .126Zm.063.944c.317-.378.633.189.76.504.38.566 1.328 1.07.949 1.763-.443.44-1.202 0-1.709.377-.253 0-.759.064-.886-.188.254-.882.507-1.763.886-2.456Zm-.696.44.127-.188c-.19.567-.506 1.196-.823 1.763-.126-.567.507-1.007.696-1.574Zm1.076 2.96c-.443 0-1.202.315-1.645-.126 0-.189-.19-.315-.19-.504.38-.126.76.315 1.139 0 .57 0 1.139-.063 1.709.063.253.063.695-.44.759.063-.19.819-1.14.252-1.772.504Zm1.455-3.526v-.063h.064l-.064.063Zm.127 1.511c0 .252.253.378.127.567a.687.687 0 0 1-.127-.567Zm.696 1.511-.127.063c-.126-.126-.063-.377-.063-.503.19.063.317.252.19.44Zm1.265.567c0 .063-.126.063-.19 0-.759-.944-1.075-1.952-1.581-2.96h.126c.57 1.008 1.013 2.016 1.645 2.96Zm.886-2.267c-.063 0-.063.063-.063.126-.696 0-1.202-.377-1.708-.755v-.126c.632 0 1.202.44 1.771.755Zm-.632-3.274c.316.063.316.378.316.63 0 .567-.316 1.007-.823 1.196-.253.126-.696.19-.949.126.57 0 1.203-.252 1.456-.818v-1.134Zm-.57-.126c.127.378.38.693.19 1.07-.253.504-.76.504-1.202.567-.19 0-.38-.063-.57-.189 0-.125 0-.188-.126-.251.063-.315-.57-.63-.127-.882.506-.315 1.456-1.196 1.835-.315Zm11.137-7.618c.38-.19 1.012-.19 1.455.063.316.063.696.188.823.503.38.378.253.945.19 1.386-.19.44-.57.755-1.076.818 0-.567.57-1.007.38-1.7-.317-.44-.95-.63-1.582-.504-.19.126-.127.378-.19.63l-.127.819c-.506 0-.506-.441-.696-.819.063-.44.317-.944.823-1.196Zm.443 2.203c.253-.251-.063-1.826.696-.818 0 .189 0 .504-.19.63-.127.126-.316.314-.506.188Zm.253.63c0 .378-.38.315-.57.44h-.57c-.126-.188-.062-.503-.062-.692.442.063.886.063 1.202.252Zm-18.983-.819c2.215 0 4.492-.125 6.58.19.697 0 1.266.188 1.962.251 1.392.19 2.658.567 4.05.63.19.063.506.063.76.126 2.214.378 4.682.944 6.833 0 0 .881-.38 1.7-.506 2.581-.19.252 0 .63-.253.882 0 .44-.38.693-.696.818-2.911.63-5.822-.377-8.67-.818-3.985-.882-8.605-1.133-12.654-.189-1.899.378-3.734.755-5.569 1.322-1.139.126-2.341.315-3.48 0-.886-.44-.506-1.574-.76-2.33.064-.63-.19-1.133-.19-1.7a2.226 2.226 0 0 1-.126-.63c.38.064.76.316 1.14.442 2.087.377 3.922-.252 5.82-.63a43.897 43.897 0 0 1 5.759-.944Z"/>
</svg>
