<svg width="72" height="72" viewBox="0 0 72 72" fill="none" xmlns="http://www.w3.org/2000/svg">
<path d="M8 14V58C8 59.5913 8.63214 61.1174 9.75736 62.2426C10.8826 63.3679 12.4087 64 14 64H58C59.5913 64 61.1174 63.3679 62.2426 62.2426C63.3679 61.1174 64 59.5913 64 58V14C64 12.4087 63.3679 10.8826 62.2426 9.75736C61.1174 8.63214 59.5913 8 58 8H14C12.4087 8 10.8826 8.63214 9.75736 9.75736C8.63214 10.8826 8 12.4087 8 14ZM58 58H14V14H58V58Z" fill="#808080"/>
<path d="M49 50C49.7956 50 50.5587 49.6839 51.1213 49.1213C51.6839 48.5587 52 47.7956 52 47C52 46.2044 51.6839 45.4413 51.1213 44.8787C50.5587 44.3161 49.7956 44 49 44H23C22.2044 44 21.4413 44.3161 20.8787 44.8787C20.3161 45.4413 20 46.2044 20 47C20 47.7956 20.3161 48.5587 20.8787 49.1213C21.4413 49.6839 22.2044 50 23 50H49Z" fill="#00558B"/>
<path d="M49 39C49.7956 39 50.5587 38.6839 51.1213 38.1213C51.6839 37.5587 52 36.7956 52 36C52 35.2044 51.6839 34.4413 51.1213 33.8787C50.5587 33.3161 49.7956 33 49 33H23C22.2044 33 21.4413 33.3161 20.8787 33.8787C20.3161 34.4413 20 35.2044 20 36C20 36.7956 20.3161 37.5587 20.8787 38.1213C21.4413 38.6839 22.2044 39 23 39H49Z" fill="#00558B"/>
<path d="M49 28C49.7956 28 50.5587 27.6839 51.1213 27.1213C51.6839 26.5587 52 25.7956 52 25C52 24.2044 51.6839 23.4413 51.1213 22.8787C50.5587 22.3161 49.7956 22 49 22H23C22.2044 22 21.4413 22.3161 20.8787 22.8787C20.3161 23.4413 20 24.2044 20 25C20 25.7956 20.3161 26.5587 20.8787 27.1213C21.4413 27.6839 22.2044 28 23 28H49Z" fill="#00558B"/>
</svg>
