<svg width="72" height="72" viewBox="0 0 72 72" fill="none" xmlns="http://www.w3.org/2000/svg">
<g clip-path="url(#clip0_13262_103174)">
<path d="M8 8V64H64V8H8ZM58 58H14V14H58V58Z" fill="#808080"/>
<g clip-path="url(#clip1_13262_103174)">
<path d="M47.3333 28.2C43.8533 29.11 39.7733 29.5 36 29.5C32.2267 29.5 28.1467 29.11 24.6667 28.2L24 30.8C26.48 31.45 29.3333 31.879 32 32.1V49H34.6667V41.2H37.3333V49H40V32.1C42.6667 31.879 45.52 31.45 48 30.8L47.3333 28.2ZM36 28.2C37.4667 28.2 38.6667 27.03 38.6667 25.6C38.6667 24.17 37.4667 23 36 23C34.5333 23 33.3333 24.17 33.3333 25.6C33.3333 27.03 34.5333 28.2 36 28.2Z" fill="#00558B"/>
</g>
</g>
<defs>
<clipPath id="clip0_13262_103174">
<rect width="72" height="72" fill="white"/>
</clipPath>
<clipPath id="clip1_13262_103174">
<rect width="100" height="100" fill="white" transform="translate(-12 -11)"/>
</clipPath>
</defs>
</svg>
