<svg width="72" height="72" viewBox="0 0 72 72" fill="none" xmlns="http://www.w3.org/2000/svg">
<g clip-path="url(#clip0_108_4170)">
<g clip-path="url(#clip1_108_4170)">
<path fill-rule="evenodd" clip-rule="evenodd" d="M64 8H8V24H64V8ZM20 16C20 18.2091 18.2091 20 16 20C13.7909 20 12 18.2091 12 16C12 13.7909 13.7909 12 16 12C18.2091 12 20 13.7909 20 16ZM43 12H22V16H43V12ZM41 18H22V20H41V18Z" fill="#00558B"/>
</g>
<path d="M57 44H8V47H57V44Z" fill="#808080"/>
<path d="M51 50H8V53H51V50Z" fill="#808080"/>
<path d="M24 38H8V40H24V38Z" fill="#808080"/>
<path d="M44 38H28V40H44V38Z" fill="#808080"/>
<path d="M64 38H48V40H64V38Z" fill="#808080"/>
<path d="M24 28H8V36H24V28Z" fill="#00558B"/>
<path d="M44 28H28V36H44V28Z" fill="#00558B"/>
<path d="M64 28H48V36H64V28Z" fill="#00558B"/>
<path d="M64 57H8V64H64V57Z" fill="#00558B"/>
<path d="M64 57H8V64H64V57Z" fill="#00558B"/>
</g>
<defs>
<clipPath id="clip0_108_4170">
<rect width="72" height="72" fill="white"/>
</clipPath>
<clipPath id="clip1_108_4170">
<rect width="100" height="100" fill="white" transform="translate(-35 -16)"/>
</clipPath>
</defs>
</svg>
