<svg width="72" height="72" viewBox="0 0 72 72" fill="none" xmlns="http://www.w3.org/2000/svg">
<path d="M55 54L50 51V57L55 54Z" fill="#00558B"/>
<path d="M58 21H14C12.4087 21 10.8826 21.6321 9.75736 22.7574C8.63214 23.8826 8 25.4087 8 27V35C8 36.5913 8.63214 38.1174 9.75736 39.2426C10.8826 40.3679 12.4087 41 14 41H58C59.5913 41 61.1174 40.3679 62.2426 39.2426C63.3679 38.1174 64 36.5913 64 35V27C64 25.4087 63.3679 23.8826 62.2426 22.7574C61.1174 21.6321 59.5913 21 58 21ZM58 35H14V27H58V35Z" fill="#808080"/>
<path d="M58.05 43.9997H45C43.4087 43.9997 41.8826 44.6319 40.7574 45.7571C39.6321 46.8823 39 48.4084 39 49.9997V57.9999C39 59.5912 39.6321 61.1173 40.7574 62.2425C41.8826 63.3678 43.4087 63.9999 45 63.9999H58.1C59.6913 63.9999 61.2174 63.3678 62.3426 62.2425C63.4679 61.1173 64.1 59.5912 64.1 57.9999V49.9997C64.1 49.2076 63.9432 48.4232 63.6385 47.692C63.3339 46.9608 62.8875 46.2971 62.325 45.7393C61.7625 45.1815 61.0952 44.7406 60.3615 44.442C59.6277 44.1434 58.8421 43.9931 58.05 43.9997ZM58.05 57.9999H45V49.9997H58L58.05 57.9999Z" fill="#00558B"/>
<path d="M45 64C43.4087 64 41.8826 63.3679 40.7574 62.2426C39.6321 61.1174 39 59.5913 39 58H14.08V50H39C39 48.4087 39.6321 46.8826 40.7574 45.7574C41.8826 44.6321 43.4087 44 45 44H14C12.4087 44 10.8826 44.6321 9.75736 45.7574C8.63214 46.8826 8 48.4087 8 50V58C8 59.5913 8.63214 61.1174 9.75736 62.2426C10.8826 63.3679 12.4087 64 14 64H45Z" fill="#808080"/>
<path d="M64 9H8V17H64V9Z" fill="#808080"/>
</svg>
