<svg width="72" height="72" viewBox="0 0 72 72" fill="none" xmlns="http://www.w3.org/2000/svg">
<path d="M19 43V49H36V43H19Z" fill="#00558B"/>
<path d="M19 34V39H53V34H19Z" fill="#808080"/>
<path d="M19 23V30H41V23H19Z" fill="#808080"/>
<path d="M45.7266 28.4443L47.2821 29.9999L52.7265 24.5555L51.1709 23L45.7266 28.4443Z" fill="#00558B"/>
<path d="M47.2812 23L45.7257 24.5555L51.1701 29.9999L52.7256 28.4444L47.2812 23Z" fill="#00558B"/>
<path d="M12.0031 27.8501L12.0031 12.0001L59.9531 12.0001L59.9531 27.8501L63.9531 27.8501L63.9531 8.0001L8.00312 8.0001L8.00312 27.8501L12.0031 27.8501Z" fill="#808080"/>
<path d="M8 8V64H64V8H8ZM58 54H14V18H58V54Z" fill="#808080"/>
</svg>
