<svg width="72" height="72" viewBox="0 0 72 72" fill="none" xmlns="http://www.w3.org/2000/svg">
<polygon points="55 51.5 49 48 49 55 55 51.5" fill="#808080"></polygon>
<path d="M58.05,39H13.91a6,6,0,0,0-6,6V58a6,6,0,0,0,6,6H58.05a6,6,0,0,0,6-6V45A6,6,0,0,0,58.05,39ZM14,45H39V58H14ZM45,58V45H58V58Z" fill="#808080"></path>
<path d="M21.46,16.5,24.26,24H22.55L22,22.32h-2.8L18.59,24H16.94l2.83-7.49Zm.09,4.59-.94-2.74h0l-1,2.74Z" fill="#00558B"></path>
<path d="M26.24,16.5v2.73h0a1.6,1.6,0,0,1,.74-.62,2.5,2.5,0,0,1,1-.19,2.14,2.14,0,0,1,.81.17,2.16,2.16,0,0,1,.72.51A2.83,2.83,0,0,1,30,20a4.23,4.23,0,0,1,0,
	2.57,2.77,2.77,0,0,1-.52.88,2.2,2.2,0,0,1-.72.52,2.13,2.13,0,0,1-.81.16,3,3,0,0,1-1.07-.18,1.39,1.39,0,0,1-.71-.64h0V24H24.75V16.5Zm2.41,4.12a1.6,1.6,0,0,
	0-.23-.55,1.21,1.21,0,0,0-.39-.39,1.23,1.23,0,0,0-1.14,0,1.35,1.35,0,0,0-.4.39,1.82,1.82,0,0,0-.23.55,2.84,2.84,0,0,0-.07.66,2.76,2.76,0,0,0,.07.65,1.88,
	1.88,0,0,0,.23.56,1.21,1.21,0,0,0,.4.38,1.23,1.23,0,0,0,1.14,0,1.09,1.09,0,0,0,.39-.38,1.65,1.65,0,0,0,.23-.56,2.75,2.75,0,0,0,.08-.65A2.84,2.84,0,0,0,
	28.65,20.62Z" fill="#00558B"></path>
<path d="M33.75,19.54a1.11,1.11,0,0,0-.6.16,1.31,1.31,0,0,0-.39.42,2,2,0,0,0-.22.57,3.23,3.23,0,0,0-.06.61,3.05,3.05,0,0,0,.06.6,2.25,2.25,0,0,0,.21.55,
	1.15,1.15,0,0,0,.38.41,1.1,1.1,0,0,0,.59.15,1.07,1.07,0,0,0,.82-.3,1.27,1.27,0,0,0,.36-.8h1.44a2.49,2.49,0,0,1-.84,1.65,2.68,2.68,0,0,1-1.77.56,2.9,2.9,
	0,0,1-1.12-.2,2.5,2.5,0,0,1-1.42-1.45,3.08,3.08,0,0,1-.2-1.11,3.42,3.42,0,0,1,.19-1.17,2.66,2.66,0,0,1,.54-.94,2.4,2.4,0,0,1,.87-.61,2.87,2.87,0,0,1,
	1.17-.22,3.59,3.59,0,0,1,.93.12,2.71,2.71,0,0,1,.8.39,2.07,2.07,0,0,1,.57.64,2,2,0,0,1,.25.91H34.85A1,1,0,0,0,33.75,19.54Z" fill="#00558B"></path>
<path d="M58,8H13.91a6,6,0,0,0-6,6V27a6,6,0,0,0,6,6H58a6,6,0,0,0,6-6V14A6,6,0,0,0,58,8Zm0,19H14V14H58Z" fill="#00558B"></path>
</svg>
