<svg width="72" height="72" viewBox="0 0 72 72" fill="none" xmlns="http://www.w3.org/2000/svg">
<path d="M64 14H24V21H64V14Z" fill="#00558B"/>
<path d="M41 7H24V11H41V7Z" fill="#808080"/>
<path fill-rule="evenodd" clip-rule="evenodd" d="M20 14C20 17.3137 17.3137 20 14 20C10.6863 20 8 17.3137 8 14C8 10.6863 10.6863 8 14 8C17.3137 8 20 10.6863 20 14ZM16.7415 11L18.32 12.5528L13.1982 17.4835L13.1466 17.4378L13.1002 17.4835L10 14.4337L11.5785 12.8759L13.1466 14.4185L16.7415 11Z" fill="#00558B"/>
<path d="M64 57H24V64H64V57Z" fill="#00558B"/>
<path d="M41 50H24V54H41V50Z" fill="#808080"/>
<path fill-rule="evenodd" clip-rule="evenodd" d="M20 57C20 60.3137 17.3137 63 14 63C10.6863 63 8 60.3137 8 57C8 53.6863 10.6863 51 14 51C17.3137 51 20 53.6863 20 57ZM16.7415 54L18.32 55.5528L13.1982 60.4835L13.1466 60.4378L13.1002 60.4835L10 57.4337L11.5785 55.8759L13.1466 57.4185L16.7415 54Z" fill="#00558B"/>
<path d="M64 35H24V42H64V35Z" fill="#00558B"/>
<path d="M41 28H24V32H41V28Z" fill="#808080"/>
<path fill-rule="evenodd" clip-rule="evenodd" d="M20 35C20 38.3137 17.3137 41 14 41C10.6863 41 8 38.3137 8 35C8 31.6863 10.6863 29 14 29C17.3137 29 20 31.6863 20 35ZM16.7415 32L18.32 33.5528L13.1982 38.4835L13.1466 38.4378L13.1002 38.4835L10 35.4337L11.5785 33.8759L13.1466 35.4185L16.7415 32Z" fill="#00558B"/>
</svg>
