<svg width="72" height="72" viewBox="0 0 72 72" fill="none" xmlns="http://www.w3.org/2000/svg">
<g clip-path="url(#clip0_30_5310)">
<path d="M8 8V64H64V8H8ZM58 58H14V14H58V58Z" fill="#808080"/>
<path d="M47.68 43.64L37.75 33.7C38.2434 32.4221 38.3511 31.0275 38.0595 29.689C37.768 28.3505 37.0902 27.127 36.11 26.17C35.0632 25.1363 33.726 24.4465 32.2769 24.1928C30.8278 23.9391 29.3358 24.1335 28 24.75L32.7 29.44L29.42 32.72L24.65 28C24.0396 29.2875 23.829 30.7283 24.0453 32.1367C24.2615 33.545 24.8948 34.8563 25.8634 35.9013C26.832 36.9463 28.0915 37.6771 29.4794 37.9995C30.8673 38.3219 32.32 38.2211 33.65 37.71L43.59 47.65C43.6888 47.7516 43.807 47.8324 43.9375 47.8875C44.068 47.9427 44.2083 47.9711 44.35 47.9711C44.4917 47.9711 44.632 47.9427 44.7625 47.8875C44.8931 47.8324 45.0112 47.7516 45.11 47.65L47.63 45.14C47.7396 45.0497 47.8288 44.9372 47.8915 44.8098C47.9542 44.6825 47.9891 44.5432 47.9939 44.4013C47.9986 44.2594 47.9731 44.1181 47.9189 43.9868C47.8648 43.8556 47.7834 43.7373 47.68 43.64Z" fill="#00558B"/>
</g>
<defs>
<clipPath id="clip0_30_5310">
<rect width="72" height="72" fill="white"/>
</clipPath>
</defs>
</svg>
