<svg width="72" height="72" viewBox="0 0 72 72" fill="none" xmlns="http://www.w3.org/2000/svg">
<path fill-rule="evenodd" clip-rule="evenodd" d="M51.5 13H20.5C16.3579 13 13 16.3579 13 20.5C13 24.6421 16.3579 28 20.5 28H51.5C55.6421 28 59 24.6421 59 20.5C59 16.3579 55.6421 13 51.5 13ZM20.5 8C13.5964 8 8 13.5964 8 20.5C8 27.4036 13.5964 33 20.5 33H51.5C58.4036 33 64 27.4036 64 20.5C64 13.5964 58.4036 8 51.5 8H20.5Z" fill="#808080"/>
<path fill-rule="evenodd" clip-rule="evenodd" d="M20.5 28C24.6421 28 28 24.6421 28 20.5C28 16.3579 24.6421 13 20.5 13C16.3579 13 13 16.3579 13 20.5C13 24.6421 16.3579 28 20.5 28ZM20.5 33C27.4036 33 33 27.4036 33 20.5C33 13.5964 27.4036 8 20.5 8C13.5964 8 8 13.5964 8 20.5C8 27.4036 13.5964 33 20.5 33Z" fill="#00558B"/>
<path fill-rule="evenodd" clip-rule="evenodd" d="M20.5 39C13.5964 39 8 44.5964 8 51.5C8 58.4036 13.5964 64 20.5 64H51.5C58.4036 64 64 58.4036 64 51.5C64 44.5964 58.4036 39 51.5 39H20.5ZM51.5 59C55.6421 59 59 55.6421 59 51.5C59 47.3579 55.6421 44 51.5 44C47.3579 44 44 47.3579 44 51.5C44 55.6421 47.3579 59 51.5 59Z" fill="#00558B"/>
</svg>
