<svg width="72" height="72" viewBox="0 0 72 72" fill="none" xmlns="http://www.w3.org/2000/svg">
<path d="M33 23L39 23L39 39C39 40.1046 38.1046 41 37 41L35 41C33.8954 41 33 40.1046 33 39L33 23Z" fill="#00558B"/>
<path d="M33.8787 20.1213C35.0503 18.9497 36.9497 18.9497 38.1213 20.1213C39.2929 21.2929 39.2929 23.1924 38.1213 24.364L28.9289 33.5563C28.1479 34.3374 26.8816 34.3374 26.1005 33.5563L24.6863 32.1421C23.9052 31.3611 23.9052 30.0948 24.6863 29.3137L33.8787 20.1213Z" fill="#00558B"/>
<path d="M34.5862 25.0711C33.0241 23.509 33.0241 20.9763 34.5862 19.4142C35.3673 18.6332 36.6336 18.6332 37.4147 19.4143L47.3142 29.3137C48.0952 30.0948 48.0952 31.3611 47.3142 32.1422L45.8999 33.5564C45.1189 34.3374 43.8526 34.3374 43.0715 33.5564L34.5862 25.0711Z" fill="#00558B"/>
<path fill-rule="evenodd" clip-rule="evenodd" d="M24 52C21.7909 52 20 50.2091 20 48V41C20 39.8954 20.8954 39 22 39H24C25.1046 39 26 39.8954 26 41L26 46L46 46V41C46 39.8954 46.8954 39 48 39H50C51.1046 39 52 39.8954 52 41L52 46V48C52 50.2091 50.2091 52 48 52L46 52L26 52H24Z" fill="#00558B"/>
<path d="M8 8V64H64V8H8ZM58 58H14V14H58V58Z" fill="#808080"/>
</svg>
